solid OpenSCAD_Model
  facet normal 0 0 -1
    outer loop
      vertex -34.2135 32.1183 0
      vertex -27.9111 20.2786 0
      vertex -31.5173 14.0324 0
    endloop
  endfacet
  facet normal 0 0 -1
    outer loop
      vertex -27.9111 20.2786 0
      vertex -32.5365 31.5734 0
      vertex -31.5 33 0
    endloop
  endfacet
  facet normal 0 0 -1
    outer loop
      vertex -34.2135 32.1183 0
      vertex -31.5173 14.0324 0
      vertex -33.7461 7.17295 0
    endloop
  endfacet
  facet normal 0 0 -1
    outer loop
      vertex -27.9111 20.2786 0
      vertex -34.2135 32.1183 0
      vertex -32.5365 31.5734 0
    endloop
  endfacet
  facet normal 0 0 -1
    outer loop
      vertex -33.7461 7.17295 0
      vertex -40 40 0
      vertex -34.2135 32.1183 0
    endloop
  endfacet
  facet normal 0 0 -1
    outer loop
      vertex -40 40 0
      vertex -33.7461 7.17295 0
      vertex -34.5 0 0
    endloop
  endfacet
  facet normal -0 0 -1
    outer loop
      vertex -23.085 -25.6385 0
      vertex -32.5365 -31.5734 0
      vertex -27.9111 -20.2786 0
    endloop
  endfacet
  facet normal 0 0 -1
    outer loop
      vertex -34.2135 -32.1183 0
      vertex -27.9111 -20.2786 0
      vertex -32.5365 -31.5734 0
    endloop
  endfacet
  facet normal -0 0 -1
    outer loop
      vertex -27.9111 -20.2786 0
      vertex -34.2135 -32.1183 0
      vertex -31.5173 -14.0324 0
    endloop
  endfacet
  facet normal -0 0 -1
    outer loop
      vertex -31.5173 -14.0324 0
      vertex -34.2135 -32.1183 0
      vertex -33.7461 -7.17295 0
    endloop
  endfacet
  facet normal 0 0 -1
    outer loop
      vertex -40 -40 0
      vertex -33.7461 -7.17295 0
      vertex -34.2135 -32.1183 0
    endloop
  endfacet
  facet normal 0 0 -1
    outer loop
      vertex 40 40 0
      vertex 33.7461 7.17295 0
      vertex 34.5 33 0
    endloop
  endfacet
  facet normal 0 0 -1
    outer loop
      vertex 31.5173 14.0324 0
      vertex 34.5 33 0
      vertex 33.7461 7.17295 0
    endloop
  endfacet
  facet normal 0 0 -1
    outer loop
      vertex 34.5 33 0
      vertex 31.5173 14.0324 0
      vertex 33.4635 31.5734 0
    endloop
  endfacet
  facet normal -0 0 -1
    outer loop
      vertex 33.4635 31.5734 0
      vertex 27.9111 20.2786 0
      vertex 31.7865 32.1183 0
    endloop
  endfacet
  facet normal 0 0 -1
    outer loop
      vertex 27.9111 20.2786 0
      vertex 33.4635 31.5734 0
      vertex 31.5173 14.0324 0
    endloop
  endfacet
  facet normal 0 0 -1
    outer loop
      vertex 40 -40 0
      vertex 33.7461 -7.17295 0
      vertex 34.5 0 0
    endloop
  endfacet
  facet normal 0 0 -1
    outer loop
      vertex 31.5173 -14.0324 0
      vertex 34.5 -33 0
      vertex 33.4635 -31.5734 0
    endloop
  endfacet
  facet normal 0 0 -1
    outer loop
      vertex 27.9111 -20.2786 0
      vertex 33.4635 -31.5734 0
      vertex 31.7865 -32.1183 0
    endloop
  endfacet
  facet normal 0 0 -1
    outer loop
      vertex 34.5 -33 0
      vertex 31.5173 -14.0324 0
      vertex 33.7461 -7.17295 0
    endloop
  endfacet
  facet normal 0 0 -1
    outer loop
      vertex 33.7461 -7.17295 0
      vertex 40 -40 0
      vertex 34.5 -33 0
    endloop
  endfacet
  facet normal 0 0 -1
    outer loop
      vertex 40 -40 0
      vertex 33.4635 -34.4266 0
      vertex 34.5 -33 0
    endloop
  endfacet
  facet normal 0 0 -1
    outer loop
      vertex 40 -40 0
      vertex 31.7865 -33.8817 0
      vertex 33.4635 -34.4266 0
    endloop
  endfacet
  facet normal 0 0 -1
    outer loop
      vertex 23.085 -25.6385 0
      vertex 31.7865 -32.1183 0
      vertex 31.7865 -33.8817 0
    endloop
  endfacet
  facet normal 0 0 -1
    outer loop
      vertex 33.4635 -31.5734 0
      vertex 27.9111 -20.2786 0
      vertex 31.5173 -14.0324 0
    endloop
  endfacet
  facet normal 0 0 -1
    outer loop
      vertex 31.7865 -32.1183 0
      vertex 23.085 -25.6385 0
      vertex 27.9111 -20.2786 0
    endloop
  endfacet
  facet normal 0 0 -1
    outer loop
      vertex 31.7865 -33.8817 0
      vertex 17.25 -29.8779 0
      vertex 23.085 -25.6385 0
    endloop
  endfacet
  facet normal 0 0 -1
    outer loop
      vertex 10.6611 -32.8114 0
      vertex 31.7865 -33.8817 0
      vertex 40 -40 0
    endloop
  endfacet
  facet normal 0 0 -1
    outer loop
      vertex 31.7865 -33.8817 0
      vertex 10.6611 -32.8114 0
      vertex 17.25 -29.8779 0
    endloop
  endfacet
  facet normal 0 0 -1
    outer loop
      vertex 40 -40 0
      vertex 3.60623 -34.311 0
      vertex 10.6611 -32.8114 0
    endloop
  endfacet
  facet normal 0 0 -1
    outer loop
      vertex 40 -40 0
      vertex -3.60623 -34.311 0
      vertex 3.60623 -34.311 0
    endloop
  endfacet
  facet normal 0 0 -1
    outer loop
      vertex -32.5365 -31.5734 0
      vertex -23.085 -25.6385 0
      vertex -31.5 -33 0
    endloop
  endfacet
  facet normal -0 0 -1
    outer loop
      vertex -17.25 -29.8779 0
      vertex -31.5 -33 0
      vertex -23.085 -25.6385 0
    endloop
  endfacet
  facet normal 0 0 -1
    outer loop
      vertex -32.5365 -34.4266 0
      vertex -17.25 -29.8779 0
      vertex -10.6611 -32.8114 0
    endloop
  endfacet
  facet normal 0 0 -1
    outer loop
      vertex -40 -40 0
      vertex -10.6611 -32.8114 0
      vertex -3.60623 -34.311 0
    endloop
  endfacet
  facet normal 0 0 -1
    outer loop
      vertex -40 -40 0
      vertex -3.60623 -34.311 0
      vertex 40 -40 0
    endloop
  endfacet
  facet normal 0 0 -1
    outer loop
      vertex -17.25 -29.8779 0
      vertex -32.5365 -34.4266 0
      vertex -31.5 -33 0
    endloop
  endfacet
  facet normal 0 0 -1
    outer loop
      vertex -40 -40 0
      vertex -34.2135 -32.1183 0
      vertex -34.2135 -33.8817 0
    endloop
  endfacet
  facet normal -0 0 -1
    outer loop
      vertex -33.7461 -7.17295 0
      vertex -40 -40 0
      vertex -34.5 0 0
    endloop
  endfacet
  facet normal -0 0 -1
    outer loop
      vertex -32.5365 -34.4266 0
      vertex -40 -40 0
      vertex -34.2135 -33.8817 0
    endloop
  endfacet
  facet normal 0 0 -1
    outer loop
      vertex -10.6611 -32.8114 0
      vertex -40 -40 0
      vertex -32.5365 -34.4266 0
    endloop
  endfacet
  facet normal 0 0 -1
    outer loop
      vertex 40 -40 0
      vertex 34.5 0 0
      vertex 40 40 0
    endloop
  endfacet
  facet normal 0 0 -1
    outer loop
      vertex 33.7461 7.17295 0
      vertex 40 40 0
      vertex 34.5 0 0
    endloop
  endfacet
  facet normal 0 0 -1
    outer loop
      vertex 33.4635 34.4266 0
      vertex 40 40 0
      vertex 34.5 33 0
    endloop
  endfacet
  facet normal 0 0 -1
    outer loop
      vertex 31.7865 33.8817 0
      vertex 40 40 0
      vertex 33.4635 34.4266 0
    endloop
  endfacet
  facet normal 0 0 -1
    outer loop
      vertex 23.085 25.6385 0
      vertex 31.7865 32.1183 0
      vertex 27.9111 20.2786 0
    endloop
  endfacet
  facet normal -0 0 -1
    outer loop
      vertex 31.7865 32.1183 0
      vertex 23.085 25.6385 0
      vertex 31.7865 33.8817 0
    endloop
  endfacet
  facet normal 0 0 -1
    outer loop
      vertex 17.25 29.8779 0
      vertex 31.7865 33.8817 0
      vertex 23.085 25.6385 0
    endloop
  endfacet
  facet normal 0 0 -1
    outer loop
      vertex 10.6611 32.8114 0
      vertex 31.7865 33.8817 0
      vertex 17.25 29.8779 0
    endloop
  endfacet
  facet normal -0 0 -1
    outer loop
      vertex 31.7865 33.8817 0
      vertex 10.6611 32.8114 0
      vertex 40 40 0
    endloop
  endfacet
  facet normal 0 0 -1
    outer loop
      vertex 3.60623 34.311 0
      vertex 40 40 0
      vertex 10.6611 32.8114 0
    endloop
  endfacet
  facet normal 0 0 -1
    outer loop
      vertex -3.60623 34.311 0
      vertex 40 40 0
      vertex 3.60623 34.311 0
    endloop
  endfacet
  facet normal 0 0 -1
    outer loop
      vertex -31.5 33 0
      vertex -23.085 25.6385 0
      vertex -27.9111 20.2786 0
    endloop
  endfacet
  facet normal 0 0 -1
    outer loop
      vertex -31.5 33 0
      vertex -17.25 29.8779 0
      vertex -23.085 25.6385 0
    endloop
  endfacet
  facet normal 0 0 -1
    outer loop
      vertex -32.5365 34.4266 0
      vertex -17.25 29.8779 0
      vertex -31.5 33 0
    endloop
  endfacet
  facet normal 0 0 -1
    outer loop
      vertex -17.25 29.8779 0
      vertex -32.5365 34.4266 0
      vertex -10.6611 32.8114 0
    endloop
  endfacet
  facet normal 0 0 -1
    outer loop
      vertex -40 40 0
      vertex -10.6611 32.8114 0
      vertex -32.5365 34.4266 0
    endloop
  endfacet
  facet normal 0 0 -1
    outer loop
      vertex -10.6611 32.8114 0
      vertex -40 40 0
      vertex -3.60623 34.311 0
    endloop
  endfacet
  facet normal 0 0 -1
    outer loop
      vertex -40 40 0
      vertex -34.5 0 0
      vertex -40 -40 0
    endloop
  endfacet
  facet normal 0 0 -1
    outer loop
      vertex -3.60623 34.311 0
      vertex -40 40 0
      vertex 40 40 0
    endloop
  endfacet
  facet normal 0 0 -1
    outer loop
      vertex -34.2135 33.8817 0
      vertex -40 40 0
      vertex -32.5365 34.4266 0
    endloop
  endfacet
  facet normal 0 0 -1
    outer loop
      vertex -34.2135 32.1183 0
      vertex -40 40 0
      vertex -34.2135 33.8817 0
    endloop
  endfacet
  facet normal 0.587786 0.809016 -0
    outer loop
      vertex 25.427 28.2395 4
      vertex 19 32.909 19
      vertex 25.427 28.2395 19
    endloop
  endfacet
  facet normal 0.587786 0.809016 0
    outer loop
      vertex 19 32.909 19
      vertex 25.427 28.2395 4
      vertex 19 32.909 4
    endloop
  endfacet
  facet normal 0.207915 0.978147 -0
    outer loop
      vertex 11.7426 36.1401 4
      vertex 3.97208 37.7918 19
      vertex 11.7426 36.1401 19
    endloop
  endfacet
  facet normal 0.207915 0.978147 0
    outer loop
      vertex 3.97208 37.7918 19
      vertex 11.7426 36.1401 4
      vertex 3.97208 37.7918 4
    endloop
  endfacet
  facet normal 0.994522 -0.10453 0
    outer loop
      vertex 37.1696 -7.90064 19
      vertex 38 0 4
      vertex 38 0 19
    endloop
  endfacet
  facet normal 0.994522 -0.10453 0
    outer loop
      vertex 38 0 4
      vertex 37.1696 -7.90064 19
      vertex 37.1696 -7.90064 4
    endloop
  endfacet
  facet normal 0.866023 0.500004 0
    outer loop
      vertex 34.7147 15.456 19
      vertex 30.7426 22.3358 4
      vertex 30.7426 22.3358 19
    endloop
  endfacet
  facet normal 0.866023 0.500004 0
    outer loop
      vertex 30.7426 22.3358 4
      vertex 34.7147 15.456 19
      vertex 34.7147 15.456 4
    endloop
  endfacet
  facet normal 0 1 -0
    outer loop
      vertex 3.97208 37.7918 4
      vertex -3.97208 37.7918 19
      vertex 3.97208 37.7918 19
    endloop
  endfacet
  facet normal 0 1 0
    outer loop
      vertex -3.97208 37.7918 19
      vertex 3.97208 37.7918 4
      vertex -3.97208 37.7918 4
    endloop
  endfacet
  facet normal 0.866023 -0.500004 0
    outer loop
      vertex 30.7426 -22.3358 19
      vertex 34.7147 -15.456 4
      vertex 34.7147 -15.456 19
    endloop
  endfacet
  facet normal 0.866023 -0.500004 0
    outer loop
      vertex 34.7147 -15.456 4
      vertex 30.7426 -22.3358 19
      vertex 30.7426 -22.3358 4
    endloop
  endfacet
  facet normal 0.994522 0.10453 0
    outer loop
      vertex 38 0 19
      vertex 37.1696 7.90064 4
      vertex 37.1696 7.90064 19
    endloop
  endfacet
  facet normal 0.994522 0.10453 0
    outer loop
      vertex 37.1696 7.90064 4
      vertex 38 0 19
      vertex 38 0 4
    endloop
  endfacet
  facet normal -0.207915 0.978147 0
    outer loop
      vertex -3.97208 37.7918 4
      vertex -11.7426 36.1401 19
      vertex -3.97208 37.7918 19
    endloop
  endfacet
  facet normal -0.207915 0.978147 0
    outer loop
      vertex -11.7426 36.1401 19
      vertex -3.97208 37.7918 4
      vertex -11.7426 36.1401 4
    endloop
  endfacet
  facet normal -0.951056 0.309019 0
    outer loop
      vertex -37.1696 7.90064 4
      vertex -34.7147 15.456 19
      vertex -34.7147 15.456 4
    endloop
  endfacet
  facet normal -0.951056 0.309019 0
    outer loop
      vertex -34.7147 15.456 19
      vertex -37.1696 7.90064 4
      vertex -37.1696 7.90064 19
    endloop
  endfacet
  facet normal 0.951056 0.309019 0
    outer loop
      vertex 37.1696 7.90064 19
      vertex 34.7147 15.456 4
      vertex 34.7147 15.456 19
    endloop
  endfacet
  facet normal 0.951056 0.309019 0
    outer loop
      vertex 34.7147 15.456 4
      vertex 37.1696 7.90064 19
      vertex 37.1696 7.90064 4
    endloop
  endfacet
  facet normal -0.406726 -0.91355 0
    outer loop
      vertex -19 -32.909 4
      vertex -11.7426 -36.1401 19
      vertex -19 -32.909 19
    endloop
  endfacet
  facet normal -0.406726 -0.91355 -0
    outer loop
      vertex -11.7426 -36.1401 19
      vertex -19 -32.909 4
      vertex -11.7426 -36.1401 4
    endloop
  endfacet
  facet normal -0.587786 0.809016 0
    outer loop
      vertex -19 32.909 4
      vertex -25.427 28.2395 19
      vertex -19 32.909 19
    endloop
  endfacet
  facet normal -0.587786 0.809016 0
    outer loop
      vertex -25.427 28.2395 19
      vertex -19 32.909 4
      vertex -25.427 28.2395 4
    endloop
  endfacet
  facet normal 0.406726 0.91355 -0
    outer loop
      vertex 19 32.909 4
      vertex 11.7426 36.1401 19
      vertex 19 32.909 19
    endloop
  endfacet
  facet normal 0.406726 0.91355 0
    outer loop
      vertex 11.7426 36.1401 19
      vertex 19 32.909 4
      vertex 11.7426 36.1401 4
    endloop
  endfacet
  facet normal -0.743152 0.669123 0
    outer loop
      vertex -30.7426 22.3358 4
      vertex -25.427 28.2395 19
      vertex -25.427 28.2395 4
    endloop
  endfacet
  facet normal -0.743152 0.669123 0
    outer loop
      vertex -25.427 28.2395 19
      vertex -30.7426 22.3358 4
      vertex -30.7426 22.3358 19
    endloop
  endfacet
  facet normal -0.207915 -0.978147 0
    outer loop
      vertex -11.7426 -36.1401 4
      vertex -3.97208 -37.7918 19
      vertex -11.7426 -36.1401 19
    endloop
  endfacet
  facet normal -0.207915 -0.978147 -0
    outer loop
      vertex -3.97208 -37.7918 19
      vertex -11.7426 -36.1401 4
      vertex -3.97208 -37.7918 4
    endloop
  endfacet
  facet normal 0.587786 -0.809016 0
    outer loop
      vertex 19 -32.909 4
      vertex 25.427 -28.2395 19
      vertex 19 -32.909 19
    endloop
  endfacet
  facet normal 0.587786 -0.809016 0
    outer loop
      vertex 25.427 -28.2395 19
      vertex 19 -32.909 4
      vertex 25.427 -28.2395 4
    endloop
  endfacet
  facet normal 0.406726 -0.91355 0
    outer loop
      vertex 11.7426 -36.1401 4
      vertex 19 -32.909 19
      vertex 11.7426 -36.1401 19
    endloop
  endfacet
  facet normal 0.406726 -0.91355 0
    outer loop
      vertex 19 -32.909 19
      vertex 11.7426 -36.1401 4
      vertex 19 -32.909 4
    endloop
  endfacet
  facet normal -0.994522 0.10453 0
    outer loop
      vertex -38 0 4
      vertex -37.1696 7.90064 19
      vertex -37.1696 7.90064 4
    endloop
  endfacet
  facet normal -0.994522 0.10453 0
    outer loop
      vertex -37.1696 7.90064 19
      vertex -38 0 4
      vertex -38 0 19
    endloop
  endfacet
  facet normal 0.743152 0.669123 0
    outer loop
      vertex 30.7426 22.3358 19
      vertex 25.427 28.2395 4
      vertex 25.427 28.2395 19
    endloop
  endfacet
  facet normal 0.743152 0.669123 0
    outer loop
      vertex 25.427 28.2395 4
      vertex 30.7426 22.3358 19
      vertex 30.7426 22.3358 4
    endloop
  endfacet
  facet normal -0.951056 -0.309019 0
    outer loop
      vertex -34.7147 -15.456 4
      vertex -37.1696 -7.90064 19
      vertex -37.1696 -7.90064 4
    endloop
  endfacet
  facet normal -0.951056 -0.309019 0
    outer loop
      vertex -37.1696 -7.90064 19
      vertex -34.7147 -15.456 4
      vertex -34.7147 -15.456 19
    endloop
  endfacet
  facet normal 0.743152 -0.669123 0
    outer loop
      vertex 25.427 -28.2395 19
      vertex 30.7426 -22.3358 4
      vertex 30.7426 -22.3358 19
    endloop
  endfacet
  facet normal 0.743152 -0.669123 0
    outer loop
      vertex 30.7426 -22.3358 4
      vertex 25.427 -28.2395 19
      vertex 25.427 -28.2395 4
    endloop
  endfacet
  facet normal -0.406726 0.91355 0
    outer loop
      vertex -11.7426 36.1401 4
      vertex -19 32.909 19
      vertex -11.7426 36.1401 19
    endloop
  endfacet
  facet normal -0.406726 0.91355 0
    outer loop
      vertex -19 32.909 19
      vertex -11.7426 36.1401 4
      vertex -19 32.909 4
    endloop
  endfacet
  facet normal 0 -1 0
    outer loop
      vertex -3.97208 -37.7918 4
      vertex 3.97208 -37.7918 19
      vertex -3.97208 -37.7918 19
    endloop
  endfacet
  facet normal 0 -1 -0
    outer loop
      vertex 3.97208 -37.7918 19
      vertex -3.97208 -37.7918 4
      vertex 3.97208 -37.7918 4
    endloop
  endfacet
  facet normal 0 0 1
    outer loop
      vertex 32.5 0 19
      vertex 38 0 19
      vertex 37.1696 7.90064 19
    endloop
  endfacet
  facet normal 0 0 1
    outer loop
      vertex 31.7898 6.75713 19
      vertex 37.1696 7.90064 19
      vertex 34.7147 15.456 19
    endloop
  endfacet
  facet normal 0 0 1
    outer loop
      vertex 38 0 19
      vertex 32.5 0 19
      vertex 37.1696 -7.90064 19
    endloop
  endfacet
  facet normal -0 0 1
    outer loop
      vertex 31.7898 -6.75713 19
      vertex 37.1696 -7.90064 19
      vertex 32.5 0 19
    endloop
  endfacet
  facet normal 0 0 1
    outer loop
      vertex 37.1696 7.90064 19
      vertex 31.7898 6.75713 19
      vertex 32.5 0 19
    endloop
  endfacet
  facet normal 0 0 1
    outer loop
      vertex 29.6902 13.2189 19
      vertex 34.7147 15.456 19
      vertex 30.7426 22.3358 19
    endloop
  endfacet
  facet normal 0 0 1
    outer loop
      vertex 34.7147 15.456 19
      vertex 29.6902 13.2189 19
      vertex 31.7898 6.75713 19
    endloop
  endfacet
  facet normal 0 0 1
    outer loop
      vertex 30.7426 22.3358 19
      vertex 26.2931 19.103 19
      vertex 29.6902 13.2189 19
    endloop
  endfacet
  facet normal 0 0 1
    outer loop
      vertex 25.427 28.2395 19
      vertex 26.2931 19.103 19
      vertex 30.7426 22.3358 19
    endloop
  endfacet
  facet normal 0 0 1
    outer loop
      vertex 25.427 28.2395 19
      vertex 21.7467 24.1522 19
      vertex 26.2931 19.103 19
    endloop
  endfacet
  facet normal 0 0 1
    outer loop
      vertex 19 32.909 19
      vertex 21.7467 24.1522 19
      vertex 25.427 28.2395 19
    endloop
  endfacet
  facet normal 0 0 1
    outer loop
      vertex 19 32.909 19
      vertex 16.25 28.1458 19
      vertex 21.7467 24.1522 19
    endloop
  endfacet
  facet normal 0 0 1
    outer loop
      vertex 11.7426 36.1401 19
      vertex 16.25 28.1458 19
      vertex 19 32.909 19
    endloop
  endfacet
  facet normal 0 0 1
    outer loop
      vertex 11.7426 36.1401 19
      vertex 10.0431 30.9093 19
      vertex 16.25 28.1458 19
    endloop
  endfacet
  facet normal 0 0 1
    outer loop
      vertex 3.97208 37.7918 19
      vertex 10.0431 30.9093 19
      vertex 11.7426 36.1401 19
    endloop
  endfacet
  facet normal 0 0 1
    outer loop
      vertex 3.97208 37.7918 19
      vertex 3.39717 32.322 19
      vertex 10.0431 30.9093 19
    endloop
  endfacet
  facet normal 0 0 1
    outer loop
      vertex 3.97208 37.7918 19
      vertex -3.39717 32.322 19
      vertex 3.39717 32.322 19
    endloop
  endfacet
  facet normal -0 0 1
    outer loop
      vertex -3.97208 37.7918 19
      vertex -3.39717 32.322 19
      vertex 3.97208 37.7918 19
    endloop
  endfacet
  facet normal 0 0 1
    outer loop
      vertex -3.97208 37.7918 19
      vertex -10.0431 30.9093 19
      vertex -3.39717 32.322 19
    endloop
  endfacet
  facet normal -0 0 1
    outer loop
      vertex -11.7426 36.1401 19
      vertex -10.0431 30.9093 19
      vertex -3.97208 37.7918 19
    endloop
  endfacet
  facet normal 0 0 1
    outer loop
      vertex -11.7426 36.1401 19
      vertex -16.25 28.1458 19
      vertex -10.0431 30.9093 19
    endloop
  endfacet
  facet normal -0 0 1
    outer loop
      vertex -19 32.909 19
      vertex -16.25 28.1458 19
      vertex -11.7426 36.1401 19
    endloop
  endfacet
  facet normal 0 0 1
    outer loop
      vertex -19 32.909 19
      vertex -21.7467 24.1522 19
      vertex -16.25 28.1458 19
    endloop
  endfacet
  facet normal -0 0 1
    outer loop
      vertex -25.427 28.2395 19
      vertex -21.7467 24.1522 19
      vertex -19 32.909 19
    endloop
  endfacet
  facet normal 0 0 1
    outer loop
      vertex -25.427 28.2395 19
      vertex -26.2931 19.103 19
      vertex -21.7467 24.1522 19
    endloop
  endfacet
  facet normal -0 0 1
    outer loop
      vertex -30.7426 22.3358 19
      vertex -26.2931 19.103 19
      vertex -25.427 28.2395 19
    endloop
  endfacet
  facet normal 0 0 1
    outer loop
      vertex -26.2931 19.103 19
      vertex -30.7426 22.3358 19
      vertex -29.6902 13.2189 19
    endloop
  endfacet
  facet normal -0 0 1
    outer loop
      vertex -34.7147 15.456 19
      vertex -29.6902 13.2189 19
      vertex -30.7426 22.3358 19
    endloop
  endfacet
  facet normal 0 0 1
    outer loop
      vertex -29.6902 13.2189 19
      vertex -34.7147 15.456 19
      vertex -31.7898 6.75713 19
    endloop
  endfacet
  facet normal -0 0 1
    outer loop
      vertex -37.1696 7.90064 19
      vertex -31.7898 6.75713 19
      vertex -34.7147 15.456 19
    endloop
  endfacet
  facet normal 0 0 1
    outer loop
      vertex 37.1696 -7.90064 19
      vertex 31.7898 -6.75713 19
      vertex 34.7147 -15.456 19
    endloop
  endfacet
  facet normal -0 0 1
    outer loop
      vertex 29.6902 -13.2189 19
      vertex 34.7147 -15.456 19
      vertex 31.7898 -6.75713 19
    endloop
  endfacet
  facet normal 0 0 1
    outer loop
      vertex 34.7147 -15.456 19
      vertex 29.6902 -13.2189 19
      vertex 30.7426 -22.3358 19
    endloop
  endfacet
  facet normal -0 0 1
    outer loop
      vertex 26.2931 -19.103 19
      vertex 30.7426 -22.3358 19
      vertex 29.6902 -13.2189 19
    endloop
  endfacet
  facet normal 0 0 1
    outer loop
      vertex 26.2931 -19.103 19
      vertex 25.427 -28.2395 19
      vertex 30.7426 -22.3358 19
    endloop
  endfacet
  facet normal -0 0 1
    outer loop
      vertex 21.7467 -24.1522 19
      vertex 25.427 -28.2395 19
      vertex 26.2931 -19.103 19
    endloop
  endfacet
  facet normal 0 0 1
    outer loop
      vertex 21.7467 -24.1522 19
      vertex 19 -32.909 19
      vertex 25.427 -28.2395 19
    endloop
  endfacet
  facet normal -0 0 1
    outer loop
      vertex 16.25 -28.1458 19
      vertex 19 -32.909 19
      vertex 21.7467 -24.1522 19
    endloop
  endfacet
  facet normal 0 0 1
    outer loop
      vertex 16.25 -28.1458 19
      vertex 11.7426 -36.1401 19
      vertex 19 -32.909 19
    endloop
  endfacet
  facet normal -0 0 1
    outer loop
      vertex 10.0431 -30.9093 19
      vertex 11.7426 -36.1401 19
      vertex 16.25 -28.1458 19
    endloop
  endfacet
  facet normal 0 0 1
    outer loop
      vertex 10.0431 -30.9093 19
      vertex 3.97208 -37.7918 19
      vertex 11.7426 -36.1401 19
    endloop
  endfacet
  facet normal -0 0 1
    outer loop
      vertex 3.39717 -32.322 19
      vertex 3.97208 -37.7918 19
      vertex 10.0431 -30.9093 19
    endloop
  endfacet
  facet normal -0 0 1
    outer loop
      vertex -3.39717 -32.322 19
      vertex 3.97208 -37.7918 19
      vertex 3.39717 -32.322 19
    endloop
  endfacet
  facet normal 0 0 1
    outer loop
      vertex -3.39717 -32.322 19
      vertex -3.97208 -37.7918 19
      vertex 3.97208 -37.7918 19
    endloop
  endfacet
  facet normal 0 0 1
    outer loop
      vertex -10.0431 -30.9093 19
      vertex -3.97208 -37.7918 19
      vertex -3.39717 -32.322 19
    endloop
  endfacet
  facet normal 0 0 1
    outer loop
      vertex -10.0431 -30.9093 19
      vertex -11.7426 -36.1401 19
      vertex -3.97208 -37.7918 19
    endloop
  endfacet
  facet normal 0 0 1
    outer loop
      vertex -16.25 -28.1458 19
      vertex -11.7426 -36.1401 19
      vertex -10.0431 -30.9093 19
    endloop
  endfacet
  facet normal 0 0 1
    outer loop
      vertex -16.25 -28.1458 19
      vertex -19 -32.909 19
      vertex -11.7426 -36.1401 19
    endloop
  endfacet
  facet normal 0 0 1
    outer loop
      vertex -21.7467 -24.1522 19
      vertex -19 -32.909 19
      vertex -16.25 -28.1458 19
    endloop
  endfacet
  facet normal 0 0 1
    outer loop
      vertex -21.7467 -24.1522 19
      vertex -25.427 -28.2395 19
      vertex -19 -32.909 19
    endloop
  endfacet
  facet normal 0 0 1
    outer loop
      vertex -26.2931 -19.103 19
      vertex -25.427 -28.2395 19
      vertex -21.7467 -24.1522 19
    endloop
  endfacet
  facet normal 0 0 1
    outer loop
      vertex -30.7426 -22.3358 19
      vertex -26.2931 -19.103 19
      vertex -29.6902 -13.2189 19
    endloop
  endfacet
  facet normal 0 0 1
    outer loop
      vertex -26.2931 -19.103 19
      vertex -30.7426 -22.3358 19
      vertex -25.427 -28.2395 19
    endloop
  endfacet
  facet normal 0 0 1
    outer loop
      vertex -34.7147 -15.456 19
      vertex -29.6902 -13.2189 19
      vertex -31.7898 -6.75713 19
    endloop
  endfacet
  facet normal 0 0 1
    outer loop
      vertex -37.1696 -7.90064 19
      vertex -31.7898 -6.75713 19
      vertex -32.5 0 19
    endloop
  endfacet
  facet normal 0 0 1
    outer loop
      vertex -31.7898 6.75713 19
      vertex -37.1696 7.90064 19
      vertex -32.5 0 19
    endloop
  endfacet
  facet normal 0 0 1
    outer loop
      vertex -29.6902 -13.2189 19
      vertex -34.7147 -15.456 19
      vertex -30.7426 -22.3358 19
    endloop
  endfacet
  facet normal 0 0 1
    outer loop
      vertex -38 0 19
      vertex -32.5 0 19
      vertex -37.1696 7.90064 19
    endloop
  endfacet
  facet normal 0 0 1
    outer loop
      vertex -31.7898 -6.75713 19
      vertex -37.1696 -7.90064 19
      vertex -34.7147 -15.456 19
    endloop
  endfacet
  facet normal 0 0 1
    outer loop
      vertex -32.5 0 19
      vertex -38 0 19
      vertex -37.1696 -7.90064 19
    endloop
  endfacet
  facet normal -0.866023 -0.500004 0
    outer loop
      vertex -30.7426 -22.3358 4
      vertex -34.7147 -15.456 19
      vertex -34.7147 -15.456 4
    endloop
  endfacet
  facet normal -0.866023 -0.500004 0
    outer loop
      vertex -34.7147 -15.456 19
      vertex -30.7426 -22.3358 4
      vertex -30.7426 -22.3358 19
    endloop
  endfacet
  facet normal -0.743152 -0.669123 0
    outer loop
      vertex -25.427 -28.2395 4
      vertex -30.7426 -22.3358 19
      vertex -30.7426 -22.3358 4
    endloop
  endfacet
  facet normal -0.743152 -0.669123 0
    outer loop
      vertex -30.7426 -22.3358 19
      vertex -25.427 -28.2395 4
      vertex -25.427 -28.2395 19
    endloop
  endfacet
  facet normal 0.951056 -0.309019 0
    outer loop
      vertex 34.7147 -15.456 19
      vertex 37.1696 -7.90064 4
      vertex 37.1696 -7.90064 19
    endloop
  endfacet
  facet normal 0.951056 -0.309019 0
    outer loop
      vertex 37.1696 -7.90064 4
      vertex 34.7147 -15.456 19
      vertex 34.7147 -15.456 4
    endloop
  endfacet
  facet normal 0.207915 -0.978147 0
    outer loop
      vertex 3.97208 -37.7918 4
      vertex 11.7426 -36.1401 19
      vertex 3.97208 -37.7918 19
    endloop
  endfacet
  facet normal 0.207915 -0.978147 0
    outer loop
      vertex 11.7426 -36.1401 19
      vertex 3.97208 -37.7918 4
      vertex 11.7426 -36.1401 4
    endloop
  endfacet
  facet normal -0.994522 -0.10453 0
    outer loop
      vertex -37.1696 -7.90064 4
      vertex -38 0 19
      vertex -38 0 4
    endloop
  endfacet
  facet normal -0.994522 -0.10453 0
    outer loop
      vertex -38 0 19
      vertex -37.1696 -7.90064 4
      vertex -37.1696 -7.90064 19
    endloop
  endfacet
  facet normal -0.587786 -0.809016 0
    outer loop
      vertex -25.427 -28.2395 4
      vertex -19 -32.909 19
      vertex -25.427 -28.2395 19
    endloop
  endfacet
  facet normal -0.587786 -0.809016 -0
    outer loop
      vertex -19 -32.909 19
      vertex -25.427 -28.2395 4
      vertex -19 -32.909 4
    endloop
  endfacet
  facet normal -0.866023 0.500004 0
    outer loop
      vertex -34.7147 15.456 4
      vertex -30.7426 22.3358 19
      vertex -30.7426 22.3358 4
    endloop
  endfacet
  facet normal -0.866023 0.500004 0
    outer loop
      vertex -30.7426 22.3358 19
      vertex -34.7147 15.456 4
      vertex -34.7147 15.456 19
    endloop
  endfacet
  facet normal 1 -0 0
    outer loop
      vertex 40 -40 4
      vertex 40 40 0
      vertex 40 40 4
    endloop
  endfacet
  facet normal 1 0 0
    outer loop
      vertex 40 40 0
      vertex 40 -40 4
      vertex 40 -40 0
    endloop
  endfacet
  facet normal 0 0 1
    outer loop
      vertex -25.427 -28.2395 4
      vertex -32.5365 -31.5734 4
      vertex -31.5 -33 4
    endloop
  endfacet
  facet normal 0 0 1
    outer loop
      vertex -30.7426 -22.3358 4
      vertex -34.2135 -32.1183 4
      vertex -32.5365 -31.5734 4
    endloop
  endfacet
  facet normal 0 0 1
    outer loop
      vertex -40 -40 4
      vertex -34.2135 -32.1183 4
      vertex -34.7147 -15.456 4
    endloop
  endfacet
  facet normal 0 0 1
    outer loop
      vertex -34.7147 -15.456 4
      vertex -34.2135 -32.1183 4
      vertex -30.7426 -22.3358 4
    endloop
  endfacet
  facet normal 0 0 1
    outer loop
      vertex -25.427 28.2395 4
      vertex -32.5365 31.5734 4
      vertex -30.7426 22.3358 4
    endloop
  endfacet
  facet normal 0 0 1
    outer loop
      vertex -34.2135 32.1183 4
      vertex -30.7426 22.3358 4
      vertex -32.5365 31.5734 4
    endloop
  endfacet
  facet normal 0 0 1
    outer loop
      vertex -30.7426 22.3358 4
      vertex -34.2135 32.1183 4
      vertex -34.7147 15.456 4
    endloop
  endfacet
  facet normal 0 0 1
    outer loop
      vertex 34.7147 -15.456 4
      vertex 33.4635 -31.5734 4
      vertex 34.5 -33 4
    endloop
  endfacet
  facet normal -0 0 1
    outer loop
      vertex 30.7426 -22.3358 4
      vertex 33.4635 -31.5734 4
      vertex 34.7147 -15.456 4
    endloop
  endfacet
  facet normal -0 0 1
    outer loop
      vertex 25.427 -28.2395 4
      vertex 31.7865 -32.1183 4
      vertex 30.7426 -22.3358 4
    endloop
  endfacet
  facet normal 0 0 1
    outer loop
      vertex 33.4635 -31.5734 4
      vertex 30.7426 -22.3358 4
      vertex 31.7865 -32.1183 4
    endloop
  endfacet
  facet normal 0 0 1
    outer loop
      vertex 40 40 4
      vertex 38 0 4
      vertex 40 -40 4
    endloop
  endfacet
  facet normal 0 0 1
    outer loop
      vertex 40 40 4
      vertex 37.1696 7.90064 4
      vertex 38 0 4
    endloop
  endfacet
  facet normal 0 0 1
    outer loop
      vertex 40 40 4
      vertex 34.7147 15.456 4
      vertex 37.1696 7.90064 4
    endloop
  endfacet
  facet normal 0 0 1
    outer loop
      vertex 40 40 4
      vertex 34.5 33 4
      vertex 34.7147 15.456 4
    endloop
  endfacet
  facet normal 0 0 1
    outer loop
      vertex 40 40 4
      vertex 33.4635 34.4266 4
      vertex 34.5 33 4
    endloop
  endfacet
  facet normal 0 0 1
    outer loop
      vertex 40 40 4
      vertex 31.7865 33.8817 4
      vertex 33.4635 34.4266 4
    endloop
  endfacet
  facet normal 0 0 1
    outer loop
      vertex 25.427 28.2395 4
      vertex 31.7865 32.1183 4
      vertex 31.7865 33.8817 4
    endloop
  endfacet
  facet normal 0 0 1
    outer loop
      vertex 31.7865 32.1183 4
      vertex 25.427 28.2395 4
      vertex 30.7426 22.3358 4
    endloop
  endfacet
  facet normal 0 0 1
    outer loop
      vertex 31.7865 33.8817 4
      vertex 19 32.909 4
      vertex 25.427 28.2395 4
    endloop
  endfacet
  facet normal 0 0 1
    outer loop
      vertex 40 40 4
      vertex 19 32.909 4
      vertex 31.7865 33.8817 4
    endloop
  endfacet
  facet normal 0 0 1
    outer loop
      vertex 40 40 4
      vertex 11.7426 36.1401 4
      vertex 19 32.909 4
    endloop
  endfacet
  facet normal 0 0 1
    outer loop
      vertex 40 40 4
      vertex 3.97208 37.7918 4
      vertex 11.7426 36.1401 4
    endloop
  endfacet
  facet normal 0 0 1
    outer loop
      vertex 40 40 4
      vertex -3.97208 37.7918 4
      vertex 3.97208 37.7918 4
    endloop
  endfacet
  facet normal -0 0 1
    outer loop
      vertex -32.5365 31.5734 4
      vertex -25.427 28.2395 4
      vertex -31.5 33 4
    endloop
  endfacet
  facet normal 0 0 1
    outer loop
      vertex -19 32.909 4
      vertex -31.5 33 4
      vertex -25.427 28.2395 4
    endloop
  endfacet
  facet normal -0 0 1
    outer loop
      vertex -32.5365 34.4266 4
      vertex -19 32.909 4
      vertex -11.7426 36.1401 4
    endloop
  endfacet
  facet normal 0 0 1
    outer loop
      vertex -40 40 4
      vertex -11.7426 36.1401 4
      vertex -3.97208 37.7918 4
    endloop
  endfacet
  facet normal 0 0 1
    outer loop
      vertex -19 32.909 4
      vertex -32.5365 34.4266 4
      vertex -31.5 33 4
    endloop
  endfacet
  facet normal 0 0 1
    outer loop
      vertex -40 40 4
      vertex -34.2135 32.1183 4
      vertex -34.2135 33.8817 4
    endloop
  endfacet
  facet normal 0 0 1
    outer loop
      vertex -34.2135 32.1183 4
      vertex -40 40 4
      vertex -34.7147 15.456 4
    endloop
  endfacet
  facet normal 0 0 1
    outer loop
      vertex -37.1696 7.90064 4
      vertex -40 40 4
      vertex -38 0 4
    endloop
  endfacet
  facet normal 0 0 1
    outer loop
      vertex -34.7147 15.456 4
      vertex -40 40 4
      vertex -37.1696 7.90064 4
    endloop
  endfacet
  facet normal 0 0 1
    outer loop
      vertex -32.5365 34.4266 4
      vertex -40 40 4
      vertex -34.2135 33.8817 4
    endloop
  endfacet
  facet normal 0 0 1
    outer loop
      vertex -11.7426 36.1401 4
      vertex -40 40 4
      vertex -32.5365 34.4266 4
    endloop
  endfacet
  facet normal -0 0 1
    outer loop
      vertex -40 40 4
      vertex -3.97208 37.7918 4
      vertex 40 40 4
    endloop
  endfacet
  facet normal -0 0 1
    outer loop
      vertex 37.1696 -7.90064 4
      vertex 40 -40 4
      vertex 38 0 4
    endloop
  endfacet
  facet normal -0 0 1
    outer loop
      vertex 34.7147 -15.456 4
      vertex 40 -40 4
      vertex 37.1696 -7.90064 4
    endloop
  endfacet
  facet normal -0 0 1
    outer loop
      vertex 34.5 -33 4
      vertex 40 -40 4
      vertex 34.7147 -15.456 4
    endloop
  endfacet
  facet normal -0 0 1
    outer loop
      vertex 33.4635 -34.4266 4
      vertex 40 -40 4
      vertex 34.5 -33 4
    endloop
  endfacet
  facet normal 0 0 1
    outer loop
      vertex 31.7865 -33.8817 4
      vertex 40 -40 4
      vertex 33.4635 -34.4266 4
    endloop
  endfacet
  facet normal 0 0 1
    outer loop
      vertex 31.7865 -32.1183 4
      vertex 25.427 -28.2395 4
      vertex 31.7865 -33.8817 4
    endloop
  endfacet
  facet normal -0 0 1
    outer loop
      vertex 19 -32.909 4
      vertex 31.7865 -33.8817 4
      vertex 25.427 -28.2395 4
    endloop
  endfacet
  facet normal 0 0 1
    outer loop
      vertex 19 -32.909 4
      vertex 40 -40 4
      vertex 31.7865 -33.8817 4
    endloop
  endfacet
  facet normal -0 0 1
    outer loop
      vertex 11.7426 -36.1401 4
      vertex 40 -40 4
      vertex 19 -32.909 4
    endloop
  endfacet
  facet normal -0 0 1
    outer loop
      vertex 3.97208 -37.7918 4
      vertex 40 -40 4
      vertex 11.7426 -36.1401 4
    endloop
  endfacet
  facet normal -0 0 1
    outer loop
      vertex -3.97208 -37.7918 4
      vertex 40 -40 4
      vertex 3.97208 -37.7918 4
    endloop
  endfacet
  facet normal 0 0 1
    outer loop
      vertex -32.5365 -31.5734 4
      vertex -25.427 -28.2395 4
      vertex -30.7426 -22.3358 4
    endloop
  endfacet
  facet normal 0 0 1
    outer loop
      vertex -31.5 -33 4
      vertex -19 -32.909 4
      vertex -25.427 -28.2395 4
    endloop
  endfacet
  facet normal 0 0 1
    outer loop
      vertex -32.5365 -34.4266 4
      vertex -19 -32.909 4
      vertex -31.5 -33 4
    endloop
  endfacet
  facet normal 0 0 1
    outer loop
      vertex -19 -32.909 4
      vertex -32.5365 -34.4266 4
      vertex -11.7426 -36.1401 4
    endloop
  endfacet
  facet normal 0 0 1
    outer loop
      vertex -40 -40 4
      vertex -11.7426 -36.1401 4
      vertex -32.5365 -34.4266 4
    endloop
  endfacet
  facet normal 0 0 1
    outer loop
      vertex -40 -40 4
      vertex -34.7147 -15.456 4
      vertex -37.1696 -7.90064 4
    endloop
  endfacet
  facet normal 0 0 1
    outer loop
      vertex -3.97208 -37.7918 4
      vertex -40 -40 4
      vertex 40 -40 4
    endloop
  endfacet
  facet normal 0 0 1
    outer loop
      vertex -11.7426 -36.1401 4
      vertex -40 -40 4
      vertex -3.97208 -37.7918 4
    endloop
  endfacet
  facet normal 0 0 1
    outer loop
      vertex -34.2135 -33.8817 4
      vertex -40 -40 4
      vertex -32.5365 -34.4266 4
    endloop
  endfacet
  facet normal 0 0 1
    outer loop
      vertex -34.2135 -32.1183 4
      vertex -40 -40 4
      vertex -34.2135 -33.8817 4
    endloop
  endfacet
  facet normal 0 0 1
    outer loop
      vertex -38 0 4
      vertex -40 -40 4
      vertex -37.1696 -7.90064 4
    endloop
  endfacet
  facet normal 0 0 1
    outer loop
      vertex -40 -40 4
      vertex -38 0 4
      vertex -40 40 4
    endloop
  endfacet
  facet normal -0 0 1
    outer loop
      vertex 33.4635 31.5734 4
      vertex 34.7147 15.456 4
      vertex 34.5 33 4
    endloop
  endfacet
  facet normal 0 0 1
    outer loop
      vertex 30.7426 22.3358 4
      vertex 33.4635 31.5734 4
      vertex 31.7865 32.1183 4
    endloop
  endfacet
  facet normal 0 0 1
    outer loop
      vertex 33.4635 31.5734 4
      vertex 30.7426 22.3358 4
      vertex 34.7147 15.456 4
    endloop
  endfacet
  facet normal -1 0 0
    outer loop
      vertex -40 -40 0
      vertex -40 40 4
      vertex -40 40 0
    endloop
  endfacet
  facet normal -1 -0 0
    outer loop
      vertex -40 40 4
      vertex -40 -40 0
      vertex -40 -40 4
    endloop
  endfacet
  facet normal 0 1 -0
    outer loop
      vertex 40 40 0
      vertex -40 40 4
      vertex 40 40 4
    endloop
  endfacet
  facet normal 0 1 0
    outer loop
      vertex -40 40 4
      vertex 40 40 0
      vertex -40 40 0
    endloop
  endfacet
  facet normal 0 -1 0
    outer loop
      vertex -40 -40 0
      vertex 40 -40 4
      vertex -40 -40 4
    endloop
  endfacet
  facet normal 0 -1 -0
    outer loop
      vertex 40 -40 4
      vertex -40 -40 0
      vertex 40 -40 0
    endloop
  endfacet
  facet normal -0.587787 -0.809015 0
    outer loop
      vertex 17.25 29.8779 0
      vertex 23.085 25.6385 15
      vertex 17.25 29.8779 15
    endloop
  endfacet
  facet normal -0.587787 -0.809015 -0
    outer loop
      vertex 23.085 25.6385 15
      vertex 17.25 29.8779 0
      vertex 23.085 25.6385 0
    endloop
  endfacet
  facet normal 0.406729 -0.913549 0
    outer loop
      vertex -17.25 29.8779 0
      vertex -10.6611 32.8114 15
      vertex -17.25 29.8779 15
    endloop
  endfacet
  facet normal 0.406729 -0.913549 0
    outer loop
      vertex -10.6611 32.8114 15
      vertex -17.25 29.8779 0
      vertex -10.6611 32.8114 0
    endloop
  endfacet
  facet normal -0.406729 -0.913549 0
    outer loop
      vertex 10.6611 32.8114 0
      vertex 17.25 29.8779 15
      vertex 10.6611 32.8114 15
    endloop
  endfacet
  facet normal -0.406729 -0.913549 -0
    outer loop
      vertex 17.25 29.8779 15
      vertex 10.6611 32.8114 0
      vertex 17.25 29.8779 0
    endloop
  endfacet
  facet normal -0.994522 0.104527 0
    outer loop
      vertex 33.7461 -7.17295 0
      vertex 34.5 0 15
      vertex 34.5 0 0
    endloop
  endfacet
  facet normal -0.994522 0.104527 0
    outer loop
      vertex 34.5 0 15
      vertex 33.7461 -7.17295 0
      vertex 33.7461 -7.17295 15
    endloop
  endfacet
  facet normal 0 -1 0
    outer loop
      vertex -3.60623 34.311 0
      vertex 3.60623 34.311 15
      vertex -3.60623 34.311 15
    endloop
  endfacet
  facet normal 0 -1 -0
    outer loop
      vertex 3.60623 34.311 15
      vertex -3.60623 34.311 0
      vertex 3.60623 34.311 0
    endloop
  endfacet
  facet normal -0.866028 -0.499995 0
    outer loop
      vertex 31.5173 14.0324 0
      vertex 27.9111 20.2786 15
      vertex 27.9111 20.2786 0
    endloop
  endfacet
  facet normal -0.866028 -0.499995 0
    outer loop
      vertex 27.9111 20.2786 15
      vertex 31.5173 14.0324 0
      vertex 31.5173 14.0324 15
    endloop
  endfacet
  facet normal -0.743143 0.669132 0
    outer loop
      vertex 23.085 -25.6385 0
      vertex 27.9111 -20.2786 15
      vertex 27.9111 -20.2786 0
    endloop
  endfacet
  facet normal -0.743143 0.669132 0
    outer loop
      vertex 27.9111 -20.2786 15
      vertex 23.085 -25.6385 0
      vertex 23.085 -25.6385 15
    endloop
  endfacet
  facet normal -0.207917 -0.978146 0
    outer loop
      vertex 3.60623 34.311 0
      vertex 10.6611 32.8114 15
      vertex 3.60623 34.311 15
    endloop
  endfacet
  facet normal -0.207917 -0.978146 -0
    outer loop
      vertex 10.6611 32.8114 15
      vertex 3.60623 34.311 0
      vertex 10.6611 32.8114 0
    endloop
  endfacet
  facet normal -0.866028 0.499995 0
    outer loop
      vertex 27.9111 -20.2786 0
      vertex 31.5173 -14.0324 15
      vertex 31.5173 -14.0324 0
    endloop
  endfacet
  facet normal -0.866028 0.499995 0
    outer loop
      vertex 31.5173 -14.0324 15
      vertex 27.9111 -20.2786 0
      vertex 27.9111 -20.2786 15
    endloop
  endfacet
  facet normal -0.743143 -0.669132 0
    outer loop
      vertex 27.9111 20.2786 0
      vertex 23.085 25.6385 15
      vertex 23.085 25.6385 0
    endloop
  endfacet
  facet normal -0.743143 -0.669132 0
    outer loop
      vertex 23.085 25.6385 15
      vertex 27.9111 20.2786 0
      vertex 27.9111 20.2786 15
    endloop
  endfacet
  facet normal -0.994522 -0.104527 0
    outer loop
      vertex 34.5 0 0
      vertex 33.7461 7.17295 15
      vertex 33.7461 7.17295 0
    endloop
  endfacet
  facet normal -0.994522 -0.104527 0
    outer loop
      vertex 33.7461 7.17295 15
      vertex 34.5 0 0
      vertex 34.5 0 15
    endloop
  endfacet
  facet normal 0.207917 -0.978146 0
    outer loop
      vertex -10.6611 32.8114 0
      vertex -3.60623 34.311 15
      vertex -10.6611 32.8114 15
    endloop
  endfacet
  facet normal 0.207917 -0.978146 0
    outer loop
      vertex -3.60623 34.311 15
      vertex -10.6611 32.8114 0
      vertex -3.60623 34.311 0
    endloop
  endfacet
  facet normal -0.951055 -0.309021 0
    outer loop
      vertex 33.7461 7.17295 0
      vertex 31.5173 14.0324 15
      vertex 31.5173 14.0324 0
    endloop
  endfacet
  facet normal -0.951055 -0.309021 0
    outer loop
      vertex 31.5173 14.0324 15
      vertex 33.7461 7.17295 0
      vertex 33.7461 7.17295 15
    endloop
  endfacet
  facet normal 0 1 -0
    outer loop
      vertex 3.60623 -34.311 0
      vertex -3.60623 -34.311 15
      vertex 3.60623 -34.311 15
    endloop
  endfacet
  facet normal 0 1 0
    outer loop
      vertex -3.60623 -34.311 15
      vertex 3.60623 -34.311 0
      vertex -3.60623 -34.311 0
    endloop
  endfacet
  facet normal 0.587787 -0.809015 0
    outer loop
      vertex -23.085 25.6385 0
      vertex -17.25 29.8779 15
      vertex -23.085 25.6385 15
    endloop
  endfacet
  facet normal 0.587787 -0.809015 0
    outer loop
      vertex -17.25 29.8779 15
      vertex -23.085 25.6385 0
      vertex -17.25 29.8779 0
    endloop
  endfacet
  facet normal 0.406729 0.913549 -0
    outer loop
      vertex -10.6611 -32.8114 0
      vertex -17.25 -29.8779 15
      vertex -10.6611 -32.8114 15
    endloop
  endfacet
  facet normal 0.406729 0.913549 0
    outer loop
      vertex -17.25 -29.8779 15
      vertex -10.6611 -32.8114 0
      vertex -17.25 -29.8779 0
    endloop
  endfacet
  facet normal 0.951055 -0.309021 0
    outer loop
      vertex -33.7461 7.17295 15
      vertex -31.5173 14.0324 0
      vertex -31.5173 14.0324 15
    endloop
  endfacet
  facet normal 0.951055 -0.309021 0
    outer loop
      vertex -31.5173 14.0324 0
      vertex -33.7461 7.17295 15
      vertex -33.7461 7.17295 0
    endloop
  endfacet
  facet normal 0.207917 0.978146 -0
    outer loop
      vertex -3.60623 -34.311 0
      vertex -10.6611 -32.8114 15
      vertex -3.60623 -34.311 15
    endloop
  endfacet
  facet normal 0.207917 0.978146 0
    outer loop
      vertex -10.6611 -32.8114 15
      vertex -3.60623 -34.311 0
      vertex -10.6611 -32.8114 0
    endloop
  endfacet
  facet normal -0.587787 0.809015 0
    outer loop
      vertex 23.085 -25.6385 0
      vertex 17.25 -29.8779 15
      vertex 23.085 -25.6385 15
    endloop
  endfacet
  facet normal -0.587787 0.809015 0
    outer loop
      vertex 17.25 -29.8779 15
      vertex 23.085 -25.6385 0
      vertex 17.25 -29.8779 0
    endloop
  endfacet
  facet normal -0.406729 0.913549 0
    outer loop
      vertex 17.25 -29.8779 0
      vertex 10.6611 -32.8114 15
      vertex 17.25 -29.8779 15
    endloop
  endfacet
  facet normal -0.406729 0.913549 0
    outer loop
      vertex 10.6611 -32.8114 15
      vertex 17.25 -29.8779 0
      vertex 10.6611 -32.8114 0
    endloop
  endfacet
  facet normal 0.743143 -0.669132 0
    outer loop
      vertex -27.9111 20.2786 15
      vertex -23.085 25.6385 0
      vertex -23.085 25.6385 15
    endloop
  endfacet
  facet normal 0.743143 -0.669132 0
    outer loop
      vertex -23.085 25.6385 0
      vertex -27.9111 20.2786 15
      vertex -27.9111 20.2786 0
    endloop
  endfacet
  facet normal 0 0 -1
    outer loop
      vertex 32.5 0 15
      vertex 34.5 0 15
      vertex 33.7461 -7.17295 15
    endloop
  endfacet
  facet normal 0 0 -1
    outer loop
      vertex 34.5 0 15
      vertex 32.5 0 15
      vertex 33.7461 7.17295 15
    endloop
  endfacet
  facet normal 0 0 -1
    outer loop
      vertex 33.7461 -7.17295 15
      vertex 31.7898 -6.75713 15
      vertex 32.5 0 15
    endloop
  endfacet
  facet normal 0 0 -1
    outer loop
      vertex 31.5173 -14.0324 15
      vertex 31.7898 -6.75713 15
      vertex 33.7461 -7.17295 15
    endloop
  endfacet
  facet normal 0 0 -1
    outer loop
      vertex 31.5173 -14.0324 15
      vertex 29.6902 -13.2189 15
      vertex 31.7898 -6.75713 15
    endloop
  endfacet
  facet normal 0 0 -1
    outer loop
      vertex 27.9111 -20.2786 15
      vertex 29.6902 -13.2189 15
      vertex 31.5173 -14.0324 15
    endloop
  endfacet
  facet normal 0 0 -1
    outer loop
      vertex 27.9111 -20.2786 15
      vertex 26.2931 -19.103 15
      vertex 29.6902 -13.2189 15
    endloop
  endfacet
  facet normal 0 0 -1
    outer loop
      vertex 23.085 -25.6385 15
      vertex 26.2931 -19.103 15
      vertex 27.9111 -20.2786 15
    endloop
  endfacet
  facet normal 0 0 -1
    outer loop
      vertex 23.085 -25.6385 15
      vertex 21.7467 -24.1522 15
      vertex 26.2931 -19.103 15
    endloop
  endfacet
  facet normal 0 0 -1
    outer loop
      vertex 17.25 -29.8779 15
      vertex 21.7467 -24.1522 15
      vertex 23.085 -25.6385 15
    endloop
  endfacet
  facet normal 0 0 -1
    outer loop
      vertex 17.25 -29.8779 15
      vertex 16.25 -28.1458 15
      vertex 21.7467 -24.1522 15
    endloop
  endfacet
  facet normal 0 0 -1
    outer loop
      vertex 10.6611 -32.8114 15
      vertex 16.25 -28.1458 15
      vertex 17.25 -29.8779 15
    endloop
  endfacet
  facet normal 0 0 -1
    outer loop
      vertex 10.6611 -32.8114 15
      vertex 10.0431 -30.9093 15
      vertex 16.25 -28.1458 15
    endloop
  endfacet
  facet normal 0 0 -1
    outer loop
      vertex 3.60623 -34.311 15
      vertex 10.0431 -30.9093 15
      vertex 10.6611 -32.8114 15
    endloop
  endfacet
  facet normal 0 0 -1
    outer loop
      vertex 3.60623 -34.311 15
      vertex 3.39717 -32.322 15
      vertex 10.0431 -30.9093 15
    endloop
  endfacet
  facet normal 0 0 -1
    outer loop
      vertex 3.60623 -34.311 15
      vertex -3.39717 -32.322 15
      vertex 3.39717 -32.322 15
    endloop
  endfacet
  facet normal 0 0 -1
    outer loop
      vertex -3.60623 -34.311 15
      vertex -3.39717 -32.322 15
      vertex 3.60623 -34.311 15
    endloop
  endfacet
  facet normal 0 0 -1
    outer loop
      vertex -3.60623 -34.311 15
      vertex -10.0431 -30.9093 15
      vertex -3.39717 -32.322 15
    endloop
  endfacet
  facet normal 0 0 -1
    outer loop
      vertex -10.6611 -32.8114 15
      vertex -10.0431 -30.9093 15
      vertex -3.60623 -34.311 15
    endloop
  endfacet
  facet normal 0 0 -1
    outer loop
      vertex -10.6611 -32.8114 15
      vertex -16.25 -28.1458 15
      vertex -10.0431 -30.9093 15
    endloop
  endfacet
  facet normal 0 0 -1
    outer loop
      vertex -17.25 -29.8779 15
      vertex -16.25 -28.1458 15
      vertex -10.6611 -32.8114 15
    endloop
  endfacet
  facet normal 0 0 -1
    outer loop
      vertex -17.25 -29.8779 15
      vertex -21.7467 -24.1522 15
      vertex -16.25 -28.1458 15
    endloop
  endfacet
  facet normal 0 0 -1
    outer loop
      vertex -23.085 -25.6385 15
      vertex -21.7467 -24.1522 15
      vertex -17.25 -29.8779 15
    endloop
  endfacet
  facet normal 0 0 -1
    outer loop
      vertex -23.085 -25.6385 15
      vertex -26.2931 -19.103 15
      vertex -21.7467 -24.1522 15
    endloop
  endfacet
  facet normal 0 0 -1
    outer loop
      vertex -27.9111 -20.2786 15
      vertex -26.2931 -19.103 15
      vertex -23.085 -25.6385 15
    endloop
  endfacet
  facet normal 0 0 -1
    outer loop
      vertex -27.9111 -20.2786 15
      vertex -29.6902 -13.2189 15
      vertex -26.2931 -19.103 15
    endloop
  endfacet
  facet normal 0 0 -1
    outer loop
      vertex -31.5173 -14.0324 15
      vertex -29.6902 -13.2189 15
      vertex -27.9111 -20.2786 15
    endloop
  endfacet
  facet normal 0 0 -1
    outer loop
      vertex -31.5173 -14.0324 15
      vertex -31.7898 -6.75713 15
      vertex -29.6902 -13.2189 15
    endloop
  endfacet
  facet normal 0 0 -1
    outer loop
      vertex -33.7461 -7.17295 15
      vertex -31.7898 -6.75713 15
      vertex -31.5173 -14.0324 15
    endloop
  endfacet
  facet normal -0 0 -1
    outer loop
      vertex -31.7898 -6.75713 15
      vertex -33.7461 -7.17295 15
      vertex -32.5 0 15
    endloop
  endfacet
  facet normal 0 0 -1
    outer loop
      vertex 31.7898 6.75713 15
      vertex 33.7461 7.17295 15
      vertex 32.5 0 15
    endloop
  endfacet
  facet normal 0 0 -1
    outer loop
      vertex 31.7898 6.75713 15
      vertex 31.5173 14.0324 15
      vertex 33.7461 7.17295 15
    endloop
  endfacet
  facet normal 0 0 -1
    outer loop
      vertex 29.6902 13.2189 15
      vertex 31.5173 14.0324 15
      vertex 31.7898 6.75713 15
    endloop
  endfacet
  facet normal 0 0 -1
    outer loop
      vertex 29.6902 13.2189 15
      vertex 27.9111 20.2786 15
      vertex 31.5173 14.0324 15
    endloop
  endfacet
  facet normal 0 0 -1
    outer loop
      vertex 26.2931 19.103 15
      vertex 27.9111 20.2786 15
      vertex 29.6902 13.2189 15
    endloop
  endfacet
  facet normal 0 0 -1
    outer loop
      vertex 26.2931 19.103 15
      vertex 23.085 25.6385 15
      vertex 27.9111 20.2786 15
    endloop
  endfacet
  facet normal 0 0 -1
    outer loop
      vertex 21.7467 24.1522 15
      vertex 23.085 25.6385 15
      vertex 26.2931 19.103 15
    endloop
  endfacet
  facet normal 0 0 -1
    outer loop
      vertex 21.7467 24.1522 15
      vertex 17.25 29.8779 15
      vertex 23.085 25.6385 15
    endloop
  endfacet
  facet normal 0 0 -1
    outer loop
      vertex 16.25 28.1458 15
      vertex 17.25 29.8779 15
      vertex 21.7467 24.1522 15
    endloop
  endfacet
  facet normal 0 0 -1
    outer loop
      vertex 16.25 28.1458 15
      vertex 10.6611 32.8114 15
      vertex 17.25 29.8779 15
    endloop
  endfacet
  facet normal 0 0 -1
    outer loop
      vertex 10.0431 30.9093 15
      vertex 10.6611 32.8114 15
      vertex 16.25 28.1458 15
    endloop
  endfacet
  facet normal 0 0 -1
    outer loop
      vertex 10.0431 30.9093 15
      vertex 3.60623 34.311 15
      vertex 10.6611 32.8114 15
    endloop
  endfacet
  facet normal 0 0 -1
    outer loop
      vertex 3.39717 32.322 15
      vertex 3.60623 34.311 15
      vertex 10.0431 30.9093 15
    endloop
  endfacet
  facet normal 0 0 -1
    outer loop
      vertex -3.39717 32.322 15
      vertex 3.60623 34.311 15
      vertex 3.39717 32.322 15
    endloop
  endfacet
  facet normal 0 0 -1
    outer loop
      vertex -3.39717 32.322 15
      vertex -3.60623 34.311 15
      vertex 3.60623 34.311 15
    endloop
  endfacet
  facet normal 0 0 -1
    outer loop
      vertex -10.0431 30.9093 15
      vertex -3.60623 34.311 15
      vertex -3.39717 32.322 15
    endloop
  endfacet
  facet normal 0 0 -1
    outer loop
      vertex -10.0431 30.9093 15
      vertex -10.6611 32.8114 15
      vertex -3.60623 34.311 15
    endloop
  endfacet
  facet normal 0 0 -1
    outer loop
      vertex -16.25 28.1458 15
      vertex -10.6611 32.8114 15
      vertex -10.0431 30.9093 15
    endloop
  endfacet
  facet normal 0 0 -1
    outer loop
      vertex -16.25 28.1458 15
      vertex -17.25 29.8779 15
      vertex -10.6611 32.8114 15
    endloop
  endfacet
  facet normal 0 0 -1
    outer loop
      vertex -21.7467 24.1522 15
      vertex -17.25 29.8779 15
      vertex -16.25 28.1458 15
    endloop
  endfacet
  facet normal 0 0 -1
    outer loop
      vertex -21.7467 24.1522 15
      vertex -23.085 25.6385 15
      vertex -17.25 29.8779 15
    endloop
  endfacet
  facet normal 0 0 -1
    outer loop
      vertex -26.2931 19.103 15
      vertex -23.085 25.6385 15
      vertex -21.7467 24.1522 15
    endloop
  endfacet
  facet normal 0 0 -1
    outer loop
      vertex -26.2931 19.103 15
      vertex -27.9111 20.2786 15
      vertex -23.085 25.6385 15
    endloop
  endfacet
  facet normal 0 0 -1
    outer loop
      vertex -29.6902 13.2189 15
      vertex -27.9111 20.2786 15
      vertex -26.2931 19.103 15
    endloop
  endfacet
  facet normal 0 0 -1
    outer loop
      vertex -29.6902 13.2189 15
      vertex -31.5173 14.0324 15
      vertex -27.9111 20.2786 15
    endloop
  endfacet
  facet normal 0 0 -1
    outer loop
      vertex -31.7898 6.75713 15
      vertex -31.5173 14.0324 15
      vertex -29.6902 13.2189 15
    endloop
  endfacet
  facet normal 0 0 -1
    outer loop
      vertex -33.7461 7.17295 15
      vertex -31.7898 6.75713 15
      vertex -32.5 0 15
    endloop
  endfacet
  facet normal 0 0 -1
    outer loop
      vertex -34.5 0 15
      vertex -32.5 0 15
      vertex -33.7461 -7.17295 15
    endloop
  endfacet
  facet normal 0 0 -1
    outer loop
      vertex -31.7898 6.75713 15
      vertex -33.7461 7.17295 15
      vertex -31.5173 14.0324 15
    endloop
  endfacet
  facet normal 0 0 -1
    outer loop
      vertex -32.5 0 15
      vertex -34.5 0 15
      vertex -33.7461 7.17295 15
    endloop
  endfacet
  facet normal 0.951055 0.309021 0
    outer loop
      vertex -31.5173 -14.0324 15
      vertex -33.7461 -7.17295 0
      vertex -33.7461 -7.17295 15
    endloop
  endfacet
  facet normal 0.951055 0.309021 0
    outer loop
      vertex -33.7461 -7.17295 0
      vertex -31.5173 -14.0324 15
      vertex -31.5173 -14.0324 0
    endloop
  endfacet
  facet normal 0.994522 -0.104527 0
    outer loop
      vertex -34.5 0 15
      vertex -33.7461 7.17295 0
      vertex -33.7461 7.17295 15
    endloop
  endfacet
  facet normal 0.994522 -0.104527 0
    outer loop
      vertex -33.7461 7.17295 0
      vertex -34.5 0 15
      vertex -34.5 0 0
    endloop
  endfacet
  facet normal 0.866028 0.499995 0
    outer loop
      vertex -27.9111 -20.2786 15
      vertex -31.5173 -14.0324 0
      vertex -31.5173 -14.0324 15
    endloop
  endfacet
  facet normal 0.866028 0.499995 0
    outer loop
      vertex -31.5173 -14.0324 0
      vertex -27.9111 -20.2786 15
      vertex -27.9111 -20.2786 0
    endloop
  endfacet
  facet normal 0.743143 0.669132 0
    outer loop
      vertex -23.085 -25.6385 15
      vertex -27.9111 -20.2786 0
      vertex -27.9111 -20.2786 15
    endloop
  endfacet
  facet normal 0.743143 0.669132 0
    outer loop
      vertex -27.9111 -20.2786 0
      vertex -23.085 -25.6385 15
      vertex -23.085 -25.6385 0
    endloop
  endfacet
  facet normal -0.951055 0.309021 0
    outer loop
      vertex 31.5173 -14.0324 0
      vertex 33.7461 -7.17295 15
      vertex 33.7461 -7.17295 0
    endloop
  endfacet
  facet normal -0.951055 0.309021 0
    outer loop
      vertex 33.7461 -7.17295 15
      vertex 31.5173 -14.0324 0
      vertex 31.5173 -14.0324 15
    endloop
  endfacet
  facet normal -0.207917 0.978146 0
    outer loop
      vertex 10.6611 -32.8114 0
      vertex 3.60623 -34.311 15
      vertex 10.6611 -32.8114 15
    endloop
  endfacet
  facet normal -0.207917 0.978146 0
    outer loop
      vertex 3.60623 -34.311 15
      vertex 10.6611 -32.8114 0
      vertex 3.60623 -34.311 0
    endloop
  endfacet
  facet normal 0.994522 0.104527 0
    outer loop
      vertex -33.7461 -7.17295 15
      vertex -34.5 0 0
      vertex -34.5 0 15
    endloop
  endfacet
  facet normal 0.994522 0.104527 0
    outer loop
      vertex -34.5 0 0
      vertex -33.7461 -7.17295 15
      vertex -33.7461 -7.17295 0
    endloop
  endfacet
  facet normal 0.587787 0.809015 -0
    outer loop
      vertex -17.25 -29.8779 0
      vertex -23.085 -25.6385 15
      vertex -17.25 -29.8779 15
    endloop
  endfacet
  facet normal 0.587787 0.809015 0
    outer loop
      vertex -23.085 -25.6385 15
      vertex -17.25 -29.8779 0
      vertex -23.085 -25.6385 0
    endloop
  endfacet
  facet normal 0.866028 -0.499995 0
    outer loop
      vertex -31.5173 14.0324 15
      vertex -27.9111 20.2786 0
      vertex -27.9111 20.2786 15
    endloop
  endfacet
  facet normal 0.866028 -0.499995 0
    outer loop
      vertex -27.9111 20.2786 0
      vertex -31.5173 14.0324 15
      vertex -31.5173 14.0324 0
    endloop
  endfacet
  facet normal 0.994522 0.104528 0
    outer loop
      vertex -31.7898 -6.75713 19
      vertex -32.5 0 15
      vertex -32.5 0 19
    endloop
  endfacet
  facet normal 0.994522 0.104528 0
    outer loop
      vertex -32.5 0 15
      vertex -31.7898 -6.75713 19
      vertex -31.7898 -6.75713 15
    endloop
  endfacet
  facet normal -0.743139 -0.669137 0
    outer loop
      vertex 26.2931 19.103 15
      vertex 21.7467 24.1522 19
      vertex 21.7467 24.1522 15
    endloop
  endfacet
  facet normal -0.743139 -0.669137 0
    outer loop
      vertex 21.7467 24.1522 19
      vertex 26.2931 19.103 15
      vertex 26.2931 19.103 19
    endloop
  endfacet
  facet normal -0.587787 -0.809016 0
    outer loop
      vertex 16.25 28.1458 15
      vertex 21.7467 24.1522 19
      vertex 16.25 28.1458 19
    endloop
  endfacet
  facet normal -0.587787 -0.809016 -0
    outer loop
      vertex 21.7467 24.1522 19
      vertex 16.25 28.1458 15
      vertex 21.7467 24.1522 15
    endloop
  endfacet
  facet normal -0.207921 -0.978146 0
    outer loop
      vertex 3.39717 32.322 15
      vertex 10.0431 30.9093 19
      vertex 3.39717 32.322 19
    endloop
  endfacet
  facet normal -0.207921 -0.978146 -0
    outer loop
      vertex 10.0431 30.9093 19
      vertex 3.39717 32.322 15
      vertex 10.0431 30.9093 15
    endloop
  endfacet
  facet normal -0.994522 0.104528 0
    outer loop
      vertex 31.7898 -6.75713 15
      vertex 32.5 0 19
      vertex 32.5 0 15
    endloop
  endfacet
  facet normal -0.994522 0.104528 0
    outer loop
      vertex 32.5 0 19
      vertex 31.7898 -6.75713 15
      vertex 31.7898 -6.75713 19
    endloop
  endfacet
  facet normal -0.866031 -0.49999 0
    outer loop
      vertex 29.6902 13.2189 15
      vertex 26.2931 19.103 19
      vertex 26.2931 19.103 15
    endloop
  endfacet
  facet normal -0.866031 -0.49999 0
    outer loop
      vertex 26.2931 19.103 19
      vertex 29.6902 13.2189 15
      vertex 29.6902 13.2189 19
    endloop
  endfacet
  facet normal 0 -1 0
    outer loop
      vertex -3.39717 32.322 15
      vertex 3.39717 32.322 19
      vertex -3.39717 32.322 19
    endloop
  endfacet
  facet normal 0 -1 -0
    outer loop
      vertex 3.39717 32.322 19
      vertex -3.39717 32.322 15
      vertex 3.39717 32.322 15
    endloop
  endfacet
  facet normal 0.743139 -0.669137 0
    outer loop
      vertex -26.2931 19.103 19
      vertex -21.7467 24.1522 15
      vertex -21.7467 24.1522 19
    endloop
  endfacet
  facet normal 0.743139 -0.669137 0
    outer loop
      vertex -21.7467 24.1522 15
      vertex -26.2931 19.103 19
      vertex -26.2931 19.103 15
    endloop
  endfacet
  facet normal -0.994522 -0.104528 0
    outer loop
      vertex 32.5 0 15
      vertex 31.7898 6.75713 19
      vertex 31.7898 6.75713 15
    endloop
  endfacet
  facet normal -0.994522 -0.104528 0
    outer loop
      vertex 31.7898 6.75713 19
      vertex 32.5 0 15
      vertex 32.5 0 19
    endloop
  endfacet
  facet normal -0.587787 0.809016 0
    outer loop
      vertex 21.7467 -24.1522 15
      vertex 16.25 -28.1458 19
      vertex 21.7467 -24.1522 19
    endloop
  endfacet
  facet normal -0.587787 0.809016 0
    outer loop
      vertex 16.25 -28.1458 19
      vertex 21.7467 -24.1522 15
      vertex 16.25 -28.1458 15
    endloop
  endfacet
  facet normal -0.951055 -0.309023 0
    outer loop
      vertex 31.7898 6.75713 15
      vertex 29.6902 13.2189 19
      vertex 29.6902 13.2189 15
    endloop
  endfacet
  facet normal -0.951055 -0.309023 0
    outer loop
      vertex 29.6902 13.2189 19
      vertex 31.7898 6.75713 15
      vertex 31.7898 6.75713 19
    endloop
  endfacet
  facet normal -0.866031 0.49999 0
    outer loop
      vertex 26.2931 -19.103 15
      vertex 29.6902 -13.2189 19
      vertex 29.6902 -13.2189 15
    endloop
  endfacet
  facet normal -0.866031 0.49999 0
    outer loop
      vertex 29.6902 -13.2189 19
      vertex 26.2931 -19.103 15
      vertex 26.2931 -19.103 19
    endloop
  endfacet
  facet normal 0.587787 -0.809016 0
    outer loop
      vertex -21.7467 24.1522 15
      vertex -16.25 28.1458 19
      vertex -21.7467 24.1522 19
    endloop
  endfacet
  facet normal 0.587787 -0.809016 0
    outer loop
      vertex -16.25 28.1458 19
      vertex -21.7467 24.1522 15
      vertex -16.25 28.1458 15
    endloop
  endfacet
  facet normal 0.207921 -0.978146 0
    outer loop
      vertex -10.0431 30.9093 15
      vertex -3.39717 32.322 19
      vertex -10.0431 30.9093 19
    endloop
  endfacet
  facet normal 0.207921 -0.978146 0
    outer loop
      vertex -3.39717 32.322 19
      vertex -10.0431 30.9093 15
      vertex -3.39717 32.322 15
    endloop
  endfacet
  facet normal -0.406738 -0.913545 0
    outer loop
      vertex 10.0431 30.9093 15
      vertex 16.25 28.1458 19
      vertex 10.0431 30.9093 19
    endloop
  endfacet
  facet normal -0.406738 -0.913545 -0
    outer loop
      vertex 16.25 28.1458 19
      vertex 10.0431 30.9093 15
      vertex 16.25 28.1458 15
    endloop
  endfacet
  facet normal 0.994522 -0.104528 0
    outer loop
      vertex -32.5 0 19
      vertex -31.7898 6.75713 15
      vertex -31.7898 6.75713 19
    endloop
  endfacet
  facet normal 0.994522 -0.104528 0
    outer loop
      vertex -31.7898 6.75713 15
      vertex -32.5 0 19
      vertex -32.5 0 15
    endloop
  endfacet
  facet normal -0.743139 0.669137 0
    outer loop
      vertex 21.7467 -24.1522 15
      vertex 26.2931 -19.103 19
      vertex 26.2931 -19.103 15
    endloop
  endfacet
  facet normal -0.743139 0.669137 0
    outer loop
      vertex 26.2931 -19.103 19
      vertex 21.7467 -24.1522 15
      vertex 21.7467 -24.1522 19
    endloop
  endfacet
  facet normal 0.866031 -0.49999 0
    outer loop
      vertex -29.6902 13.2189 19
      vertex -26.2931 19.103 15
      vertex -26.2931 19.103 19
    endloop
  endfacet
  facet normal 0.866031 -0.49999 0
    outer loop
      vertex -26.2931 19.103 15
      vertex -29.6902 13.2189 19
      vertex -29.6902 13.2189 15
    endloop
  endfacet
  facet normal 0 1 -0
    outer loop
      vertex 3.39717 -32.322 15
      vertex -3.39717 -32.322 19
      vertex 3.39717 -32.322 19
    endloop
  endfacet
  facet normal 0 1 0
    outer loop
      vertex -3.39717 -32.322 19
      vertex 3.39717 -32.322 15
      vertex -3.39717 -32.322 15
    endloop
  endfacet
  facet normal -0.406738 0.913545 0
    outer loop
      vertex 16.25 -28.1458 15
      vertex 10.0431 -30.9093 19
      vertex 16.25 -28.1458 19
    endloop
  endfacet
  facet normal -0.406738 0.913545 0
    outer loop
      vertex 10.0431 -30.9093 19
      vertex 16.25 -28.1458 15
      vertex 10.0431 -30.9093 15
    endloop
  endfacet
  facet normal 0.743139 0.669137 0
    outer loop
      vertex -21.7467 -24.1522 19
      vertex -26.2931 -19.103 15
      vertex -26.2931 -19.103 19
    endloop
  endfacet
  facet normal 0.743139 0.669137 0
    outer loop
      vertex -26.2931 -19.103 15
      vertex -21.7467 -24.1522 19
      vertex -21.7467 -24.1522 15
    endloop
  endfacet
  facet normal 0.406738 0.913545 -0
    outer loop
      vertex -10.0431 -30.9093 15
      vertex -16.25 -28.1458 19
      vertex -10.0431 -30.9093 19
    endloop
  endfacet
  facet normal 0.406738 0.913545 0
    outer loop
      vertex -16.25 -28.1458 19
      vertex -10.0431 -30.9093 15
      vertex -16.25 -28.1458 15
    endloop
  endfacet
  facet normal 0.406738 -0.913545 0
    outer loop
      vertex -16.25 28.1458 15
      vertex -10.0431 30.9093 19
      vertex -16.25 28.1458 19
    endloop
  endfacet
  facet normal 0.406738 -0.913545 0
    outer loop
      vertex -10.0431 30.9093 19
      vertex -16.25 28.1458 15
      vertex -10.0431 30.9093 15
    endloop
  endfacet
  facet normal 0.951055 0.309023 0
    outer loop
      vertex -29.6902 -13.2189 19
      vertex -31.7898 -6.75713 15
      vertex -31.7898 -6.75713 19
    endloop
  endfacet
  facet normal 0.951055 0.309023 0
    outer loop
      vertex -31.7898 -6.75713 15
      vertex -29.6902 -13.2189 19
      vertex -29.6902 -13.2189 15
    endloop
  endfacet
  facet normal -0.951055 0.309023 0
    outer loop
      vertex 29.6902 -13.2189 15
      vertex 31.7898 -6.75713 19
      vertex 31.7898 -6.75713 15
    endloop
  endfacet
  facet normal -0.951055 0.309023 0
    outer loop
      vertex 31.7898 -6.75713 19
      vertex 29.6902 -13.2189 15
      vertex 29.6902 -13.2189 19
    endloop
  endfacet
  facet normal -0.207921 0.978146 0
    outer loop
      vertex 10.0431 -30.9093 15
      vertex 3.39717 -32.322 19
      vertex 10.0431 -30.9093 19
    endloop
  endfacet
  facet normal -0.207921 0.978146 0
    outer loop
      vertex 3.39717 -32.322 19
      vertex 10.0431 -30.9093 15
      vertex 3.39717 -32.322 15
    endloop
  endfacet
  facet normal 0.866031 0.49999 0
    outer loop
      vertex -26.2931 -19.103 19
      vertex -29.6902 -13.2189 15
      vertex -29.6902 -13.2189 19
    endloop
  endfacet
  facet normal 0.866031 0.49999 0
    outer loop
      vertex -29.6902 -13.2189 15
      vertex -26.2931 -19.103 19
      vertex -26.2931 -19.103 15
    endloop
  endfacet
  facet normal 0.587787 0.809016 -0
    outer loop
      vertex -16.25 -28.1458 15
      vertex -21.7467 -24.1522 19
      vertex -16.25 -28.1458 19
    endloop
  endfacet
  facet normal 0.587787 0.809016 0
    outer loop
      vertex -21.7467 -24.1522 19
      vertex -16.25 -28.1458 15
      vertex -21.7467 -24.1522 15
    endloop
  endfacet
  facet normal 0.207921 0.978146 -0
    outer loop
      vertex -3.39717 -32.322 15
      vertex -10.0431 -30.9093 19
      vertex -3.39717 -32.322 19
    endloop
  endfacet
  facet normal 0.207921 0.978146 0
    outer loop
      vertex -10.0431 -30.9093 19
      vertex -3.39717 -32.322 15
      vertex -10.0431 -30.9093 15
    endloop
  endfacet
  facet normal 0.951055 -0.309023 0
    outer loop
      vertex -31.7898 6.75713 19
      vertex -29.6902 13.2189 15
      vertex -29.6902 13.2189 19
    endloop
  endfacet
  facet normal 0.951055 -0.309023 0
    outer loop
      vertex -29.6902 13.2189 15
      vertex -31.7898 6.75713 19
      vertex -31.7898 6.75713 15
    endloop
  endfacet
  facet normal 0.309022 0.951055 -0
    outer loop
      vertex 33.4635 31.5734 0
      vertex 31.7865 32.1183 4
      vertex 33.4635 31.5734 4
    endloop
  endfacet
  facet normal 0.309022 0.951055 0
    outer loop
      vertex 31.7865 32.1183 4
      vertex 33.4635 31.5734 0
      vertex 31.7865 32.1183 0
    endloop
  endfacet
  facet normal 0.309022 -0.951055 0
    outer loop
      vertex 31.7865 33.8817 0
      vertex 33.4635 34.4266 4
      vertex 31.7865 33.8817 4
    endloop
  endfacet
  facet normal 0.309022 -0.951055 0
    outer loop
      vertex 33.4635 34.4266 4
      vertex 31.7865 33.8817 0
      vertex 33.4635 34.4266 0
    endloop
  endfacet
  facet normal -0.809013 -0.587791 0
    outer loop
      vertex 34.5 33 0
      vertex 33.4635 34.4266 4
      vertex 33.4635 34.4266 0
    endloop
  endfacet
  facet normal -0.809013 -0.587791 0
    outer loop
      vertex 33.4635 34.4266 4
      vertex 34.5 33 0
      vertex 34.5 33 4
    endloop
  endfacet
  facet normal 1 -0 0
    outer loop
      vertex 31.7865 32.1183 4
      vertex 31.7865 33.8817 0
      vertex 31.7865 33.8817 4
    endloop
  endfacet
  facet normal 1 0 0
    outer loop
      vertex 31.7865 33.8817 0
      vertex 31.7865 32.1183 4
      vertex 31.7865 32.1183 0
    endloop
  endfacet
  facet normal -0.809013 0.587791 0
    outer loop
      vertex 33.4635 31.5734 0
      vertex 34.5 33 4
      vertex 34.5 33 0
    endloop
  endfacet
  facet normal -0.809013 0.587791 0
    outer loop
      vertex 34.5 33 4
      vertex 33.4635 31.5734 0
      vertex 33.4635 31.5734 4
    endloop
  endfacet
  facet normal 0.309022 0.951055 -0
    outer loop
      vertex -32.5365 -34.4266 0
      vertex -34.2135 -33.8817 4
      vertex -32.5365 -34.4266 4
    endloop
  endfacet
  facet normal 0.309022 0.951055 0
    outer loop
      vertex -34.2135 -33.8817 4
      vertex -32.5365 -34.4266 0
      vertex -34.2135 -33.8817 0
    endloop
  endfacet
  facet normal 0.309022 -0.951055 0
    outer loop
      vertex -34.2135 -32.1183 0
      vertex -32.5365 -31.5734 4
      vertex -34.2135 -32.1183 4
    endloop
  endfacet
  facet normal 0.309022 -0.951055 0
    outer loop
      vertex -32.5365 -31.5734 4
      vertex -34.2135 -32.1183 0
      vertex -32.5365 -31.5734 0
    endloop
  endfacet
  facet normal -0.809013 -0.587791 0
    outer loop
      vertex -31.5 -33 0
      vertex -32.5365 -31.5734 4
      vertex -32.5365 -31.5734 0
    endloop
  endfacet
  facet normal -0.809013 -0.587791 0
    outer loop
      vertex -32.5365 -31.5734 4
      vertex -31.5 -33 0
      vertex -31.5 -33 4
    endloop
  endfacet
  facet normal 1 -0 0
    outer loop
      vertex -34.2135 -33.8817 4
      vertex -34.2135 -32.1183 0
      vertex -34.2135 -32.1183 4
    endloop
  endfacet
  facet normal 1 0 0
    outer loop
      vertex -34.2135 -32.1183 0
      vertex -34.2135 -33.8817 4
      vertex -34.2135 -33.8817 0
    endloop
  endfacet
  facet normal -0.809013 0.587791 0
    outer loop
      vertex -32.5365 -34.4266 0
      vertex -31.5 -33 4
      vertex -31.5 -33 0
    endloop
  endfacet
  facet normal -0.809013 0.587791 0
    outer loop
      vertex -31.5 -33 4
      vertex -32.5365 -34.4266 0
      vertex -32.5365 -34.4266 4
    endloop
  endfacet
  facet normal 0.309022 0.951055 -0
    outer loop
      vertex 33.4635 -34.4266 0
      vertex 31.7865 -33.8817 4
      vertex 33.4635 -34.4266 4
    endloop
  endfacet
  facet normal 0.309022 0.951055 0
    outer loop
      vertex 31.7865 -33.8817 4
      vertex 33.4635 -34.4266 0
      vertex 31.7865 -33.8817 0
    endloop
  endfacet
  facet normal 0.309022 -0.951055 0
    outer loop
      vertex 31.7865 -32.1183 0
      vertex 33.4635 -31.5734 4
      vertex 31.7865 -32.1183 4
    endloop
  endfacet
  facet normal 0.309022 -0.951055 0
    outer loop
      vertex 33.4635 -31.5734 4
      vertex 31.7865 -32.1183 0
      vertex 33.4635 -31.5734 0
    endloop
  endfacet
  facet normal -0.809013 -0.587791 0
    outer loop
      vertex 34.5 -33 0
      vertex 33.4635 -31.5734 4
      vertex 33.4635 -31.5734 0
    endloop
  endfacet
  facet normal -0.809013 -0.587791 0
    outer loop
      vertex 33.4635 -31.5734 4
      vertex 34.5 -33 0
      vertex 34.5 -33 4
    endloop
  endfacet
  facet normal 1 -0 0
    outer loop
      vertex 31.7865 -33.8817 4
      vertex 31.7865 -32.1183 0
      vertex 31.7865 -32.1183 4
    endloop
  endfacet
  facet normal 1 0 0
    outer loop
      vertex 31.7865 -32.1183 0
      vertex 31.7865 -33.8817 4
      vertex 31.7865 -33.8817 0
    endloop
  endfacet
  facet normal -0.809013 0.587791 0
    outer loop
      vertex 33.4635 -34.4266 0
      vertex 34.5 -33 4
      vertex 34.5 -33 0
    endloop
  endfacet
  facet normal -0.809013 0.587791 0
    outer loop
      vertex 34.5 -33 4
      vertex 33.4635 -34.4266 0
      vertex 33.4635 -34.4266 4
    endloop
  endfacet
  facet normal 0.309022 0.951055 -0
    outer loop
      vertex -32.5365 31.5734 0
      vertex -34.2135 32.1183 4
      vertex -32.5365 31.5734 4
    endloop
  endfacet
  facet normal 0.309022 0.951055 0
    outer loop
      vertex -34.2135 32.1183 4
      vertex -32.5365 31.5734 0
      vertex -34.2135 32.1183 0
    endloop
  endfacet
  facet normal 0.309022 -0.951055 0
    outer loop
      vertex -34.2135 33.8817 0
      vertex -32.5365 34.4266 4
      vertex -34.2135 33.8817 4
    endloop
  endfacet
  facet normal 0.309022 -0.951055 0
    outer loop
      vertex -32.5365 34.4266 4
      vertex -34.2135 33.8817 0
      vertex -32.5365 34.4266 0
    endloop
  endfacet
  facet normal -0.809013 -0.587791 0
    outer loop
      vertex -31.5 33 0
      vertex -32.5365 34.4266 4
      vertex -32.5365 34.4266 0
    endloop
  endfacet
  facet normal -0.809013 -0.587791 0
    outer loop
      vertex -32.5365 34.4266 4
      vertex -31.5 33 0
      vertex -31.5 33 4
    endloop
  endfacet
  facet normal 1 -0 0
    outer loop
      vertex -34.2135 32.1183 4
      vertex -34.2135 33.8817 0
      vertex -34.2135 33.8817 4
    endloop
  endfacet
  facet normal 1 0 0
    outer loop
      vertex -34.2135 33.8817 0
      vertex -34.2135 32.1183 4
      vertex -34.2135 32.1183 0
    endloop
  endfacet
  facet normal -0.809013 0.587791 0
    outer loop
      vertex -32.5365 31.5734 0
      vertex -31.5 33 4
      vertex -31.5 33 0
    endloop
  endfacet
  facet normal -0.809013 0.587791 0
    outer loop
      vertex -31.5 33 4
      vertex -32.5365 31.5734 0
      vertex -32.5365 31.5734 4
    endloop
  endfacet
endsolid OpenSCAD_Model
