solid OpenSCAD_Model
  facet normal 1 -0 0
    outer loop
      vertex 8.37167 -8.37167 39.4867
      vertex 8.37167 8.37167 8.37167
      vertex 8.37167 8.37167 39.4867
    endloop
  endfacet
  facet normal 1 0 0
    outer loop
      vertex 8.37167 8.37167 8.37167
      vertex 8.37167 -8.37167 39.4867
      vertex 8.37167 -8.37167 8.37167
    endloop
  endfacet
  facet normal -0 0 1
    outer loop
      vertex -8.37167 8.37167 39.4867
      vertex 8.37167 -8.37167 39.4867
      vertex 8.37167 8.37167 39.4867
    endloop
  endfacet
  facet normal 0 0 1
    outer loop
      vertex 8.37167 -8.37167 39.4867
      vertex -8.37167 8.37167 39.4867
      vertex -8.37167 -8.37167 39.4867
    endloop
  endfacet
  facet normal -1 0 0
    outer loop
      vertex -8.37167 -8.37167 8.37167
      vertex -8.37167 8.37167 39.4867
      vertex -8.37167 8.37167 8.37167
    endloop
  endfacet
  facet normal -1 -0 0
    outer loop
      vertex -8.37167 8.37167 39.4867
      vertex -8.37167 -8.37167 8.37167
      vertex -8.37167 -8.37167 39.4867
    endloop
  endfacet
  facet normal 0 1 -0
    outer loop
      vertex 39.4867 8.37167 -8.37167
      vertex 9.87167 8.37167 8.37167
      vertex 39.4867 8.37167 8.37167
    endloop
  endfacet
  facet normal 0 1 0
    outer loop
      vertex 9.87167 8.37167 8.37167
      vertex 39.4867 8.37167 -8.37167
      vertex 9.87167 8.37167 -8.37167
    endloop
  endfacet
  facet normal 0 1 -0
    outer loop
      vertex 8.37167 8.37167 8.37167
      vertex -8.37167 8.37167 39.4867
      vertex 8.37167 8.37167 39.4867
    endloop
  endfacet
  facet normal 0 1 0
    outer loop
      vertex -8.37167 8.37167 39.4867
      vertex 8.37167 8.37167 8.37167
      vertex -8.37167 8.37167 8.37167
    endloop
  endfacet
  facet normal 0 -1 0
    outer loop
      vertex 9.87167 -8.37167 -8.37167
      vertex 39.4867 -8.37167 8.37167
      vertex 9.87167 -8.37167 8.37167
    endloop
  endfacet
  facet normal 0 -1 -0
    outer loop
      vertex 39.4867 -8.37167 8.37167
      vertex 9.87167 -8.37167 -8.37167
      vertex 39.4867 -8.37167 -8.37167
    endloop
  endfacet
  facet normal 0 -1 0
    outer loop
      vertex -8.37167 -8.37167 8.37167
      vertex 8.37167 -8.37167 39.4867
      vertex -8.37167 -8.37167 39.4867
    endloop
  endfacet
  facet normal 0 -1 -0
    outer loop
      vertex 8.37167 -8.37167 39.4867
      vertex -8.37167 -8.37167 8.37167
      vertex 8.37167 -8.37167 8.37167
    endloop
  endfacet
  facet normal 0 0 -1
    outer loop
      vertex 8.37167 -39.4867 -8.37167
      vertex -8.37167 -39.4867 -8.37167
      vertex 8.37167 -9.87167 -8.37167
    endloop
  endfacet
  facet normal 0 0 -1
    outer loop
      vertex 8.37167 -9.87167 -8.37167
      vertex 9.87167 -8.37167 -8.37167
      vertex 9.87167 -9.87167 -8.37167
    endloop
  endfacet
  facet normal -0 0 -1
    outer loop
      vertex 9.87167 -8.37167 -8.37167
      vertex 8.37167 -9.87167 -8.37167
      vertex 9.87167 8.37167 -8.37167
    endloop
  endfacet
  facet normal 0 0 -1
    outer loop
      vertex -8.37167 -9.87167 -8.37167
      vertex 9.87167 8.37167 -8.37167
      vertex 8.37167 -9.87167 -8.37167
    endloop
  endfacet
  facet normal 0 0 -1
    outer loop
      vertex -8.37167 -9.87167 -8.37167
      vertex 8.37167 -9.87167 -8.37167
      vertex -8.37167 -39.4867 -8.37167
    endloop
  endfacet
  facet normal 0 0 -1
    outer loop
      vertex -9.87167 9.87167 -8.37167
      vertex 9.87167 8.37167 -8.37167
      vertex -8.37167 -9.87167 -8.37167
    endloop
  endfacet
  facet normal 0 0 -1
    outer loop
      vertex -9.87167 9.87167 -8.37167
      vertex -8.37167 -9.87167 -8.37167
      vertex -9.87167 -9.87167 -8.37167
    endloop
  endfacet
  facet normal 0 0 -1
    outer loop
      vertex 9.87167 8.37167 -8.37167
      vertex -9.87167 9.87167 -8.37167
      vertex 9.87167 9.87167 -8.37167
    endloop
  endfacet
  facet normal 0 0 -1
    outer loop
      vertex 9.87167 -8.37167 -8.37167
      vertex 39.4867 8.37167 -8.37167
      vertex 39.4867 -8.37167 -8.37167
    endloop
  endfacet
  facet normal -0 0 -1
    outer loop
      vertex 39.4867 8.37167 -8.37167
      vertex 9.87167 -8.37167 -8.37167
      vertex 9.87167 8.37167 -8.37167
    endloop
  endfacet
  facet normal 1 -0 0
    outer loop
      vertex 39.4867 -8.37167 8.37167
      vertex 39.4867 8.37167 -8.37167
      vertex 39.4867 8.37167 8.37167
    endloop
  endfacet
  facet normal 1 0 0
    outer loop
      vertex 39.4867 8.37167 -8.37167
      vertex 39.4867 -8.37167 8.37167
      vertex 39.4867 -8.37167 -8.37167
    endloop
  endfacet
  facet normal 0 0 1
    outer loop
      vertex 8.37167 8.37167 8.37167
      vertex 9.87167 8.37167 8.37167
      vertex 9.87167 9.87167 8.37167
    endloop
  endfacet
  facet normal 0 0 1
    outer loop
      vertex 9.87167 8.37167 8.37167
      vertex 8.37167 8.37167 8.37167
      vertex 9.87167 -8.37167 8.37167
    endloop
  endfacet
  facet normal 0 0 1
    outer loop
      vertex 8.37167 -8.37167 8.37167
      vertex 9.87167 -8.37167 8.37167
      vertex 8.37167 8.37167 8.37167
    endloop
  endfacet
  facet normal 0 0 1
    outer loop
      vertex 9.87167 9.87167 8.37167
      vertex -8.37167 8.37167 8.37167
      vertex 8.37167 8.37167 8.37167
    endloop
  endfacet
  facet normal 0 0 1
    outer loop
      vertex -9.87167 -9.87167 8.37167
      vertex -8.37167 -8.37167 8.37167
      vertex -8.37167 8.37167 8.37167
    endloop
  endfacet
  facet normal -0 0 1
    outer loop
      vertex -9.87167 9.87167 8.37167
      vertex -8.37167 8.37167 8.37167
      vertex 9.87167 9.87167 8.37167
    endloop
  endfacet
  facet normal 0 0 1
    outer loop
      vertex -9.87167 -9.87167 8.37167
      vertex -8.37167 8.37167 8.37167
      vertex -9.87167 9.87167 8.37167
    endloop
  endfacet
  facet normal 0 0 1
    outer loop
      vertex -8.37167 -8.37167 8.37167
      vertex -9.87167 -9.87167 8.37167
      vertex -8.37167 -9.87167 8.37167
    endloop
  endfacet
  facet normal -0 0 1
    outer loop
      vertex 9.87167 8.37167 8.37167
      vertex 39.4867 -8.37167 8.37167
      vertex 39.4867 8.37167 8.37167
    endloop
  endfacet
  facet normal 0 0 1
    outer loop
      vertex 39.4867 -8.37167 8.37167
      vertex 9.87167 8.37167 8.37167
      vertex 9.87167 -8.37167 8.37167
    endloop
  endfacet
  facet normal 0 0 1
    outer loop
      vertex 9.87167 -8.37167 8.37167
      vertex 8.37167 -8.37167 8.37167
      vertex 9.87167 -9.87167 8.37167
    endloop
  endfacet
  facet normal 0 0 1
    outer loop
      vertex 8.37167 -8.37167 8.37167
      vertex 8.37167 -9.87167 8.37167
      vertex 9.87167 -9.87167 8.37167
    endloop
  endfacet
  facet normal 0 0 1
    outer loop
      vertex -8.37167 -9.87167 8.37167
      vertex 8.37167 -9.87167 8.37167
      vertex 8.37167 -8.37167 8.37167
    endloop
  endfacet
  facet normal 0 0 1
    outer loop
      vertex -8.37167 -9.87167 8.37167
      vertex 8.37167 -8.37167 8.37167
      vertex -8.37167 -8.37167 8.37167
    endloop
  endfacet
  facet normal 0 0 1
    outer loop
      vertex 8.37167 -9.87167 8.37167
      vertex -8.37167 -9.87167 8.37167
      vertex 8.37167 -39.4867 8.37167
    endloop
  endfacet
  facet normal 0 0 1
    outer loop
      vertex 8.37167 -39.4867 8.37167
      vertex -8.37167 -9.87167 8.37167
      vertex -8.37167 -39.4867 8.37167
    endloop
  endfacet
  facet normal -1 0 0
    outer loop
      vertex -8.37167 -39.4867 -8.37167
      vertex -8.37167 -9.87167 8.37167
      vertex -8.37167 -9.87167 -8.37167
    endloop
  endfacet
  facet normal -1 -0 0
    outer loop
      vertex -8.37167 -9.87167 8.37167
      vertex -8.37167 -39.4867 -8.37167
      vertex -8.37167 -39.4867 8.37167
    endloop
  endfacet
  facet normal 1 -0 0
    outer loop
      vertex 8.37167 -39.4867 8.37167
      vertex 8.37167 -9.87167 -8.37167
      vertex 8.37167 -9.87167 8.37167
    endloop
  endfacet
  facet normal 1 0 0
    outer loop
      vertex 8.37167 -9.87167 -8.37167
      vertex 8.37167 -39.4867 8.37167
      vertex 8.37167 -39.4867 -8.37167
    endloop
  endfacet
  facet normal 0 -1 0
    outer loop
      vertex -8.37167 -39.4867 -8.37167
      vertex 8.37167 -39.4867 8.37167
      vertex -8.37167 -39.4867 8.37167
    endloop
  endfacet
  facet normal 0 -1 -0
    outer loop
      vertex 8.37167 -39.4867 8.37167
      vertex -8.37167 -39.4867 -8.37167
      vertex 8.37167 -39.4867 -8.37167
    endloop
  endfacet
  facet normal 1 -0 0
    outer loop
      vertex 9.87167 8.37167 8.37167
      vertex 9.87167 9.87167 -8.37167
      vertex 9.87167 9.87167 8.37167
    endloop
  endfacet
  facet normal 1 0 0
    outer loop
      vertex 9.87167 9.87167 -8.37167
      vertex 9.87167 8.37167 8.37167
      vertex 9.87167 8.37167 -8.37167
    endloop
  endfacet
  facet normal 1 -0 0
    outer loop
      vertex 9.87167 -9.87167 8.37167
      vertex 9.87167 -8.37167 -8.37167
      vertex 9.87167 -8.37167 8.37167
    endloop
  endfacet
  facet normal 1 0 0
    outer loop
      vertex 9.87167 -8.37167 -8.37167
      vertex 9.87167 -9.87167 8.37167
      vertex 9.87167 -9.87167 -8.37167
    endloop
  endfacet
  facet normal -1 0 0
    outer loop
      vertex -9.87167 -9.87167 -8.37167
      vertex -9.87167 9.87167 8.37167
      vertex -9.87167 9.87167 -8.37167
    endloop
  endfacet
  facet normal -1 -0 0
    outer loop
      vertex -9.87167 9.87167 8.37167
      vertex -9.87167 -9.87167 -8.37167
      vertex -9.87167 -9.87167 8.37167
    endloop
  endfacet
  facet normal 0 1 -0
    outer loop
      vertex 9.87167 9.87167 -8.37167
      vertex -9.87167 9.87167 8.37167
      vertex 9.87167 9.87167 8.37167
    endloop
  endfacet
  facet normal 0 1 0
    outer loop
      vertex -9.87167 9.87167 8.37167
      vertex 9.87167 9.87167 -8.37167
      vertex -9.87167 9.87167 -8.37167
    endloop
  endfacet
  facet normal 0 -1 0
    outer loop
      vertex -9.87167 -9.87167 -8.37167
      vertex -8.37167 -9.87167 8.37167
      vertex -9.87167 -9.87167 8.37167
    endloop
  endfacet
  facet normal 0 -1 -0
    outer loop
      vertex -8.37167 -9.87167 8.37167
      vertex -9.87167 -9.87167 -8.37167
      vertex -8.37167 -9.87167 -8.37167
    endloop
  endfacet
  facet normal 0 -1 0
    outer loop
      vertex 8.37167 -9.87167 -8.37167
      vertex 9.87167 -9.87167 8.37167
      vertex 8.37167 -9.87167 8.37167
    endloop
  endfacet
  facet normal 0 -1 -0
    outer loop
      vertex 9.87167 -9.87167 8.37167
      vertex 8.37167 -9.87167 -8.37167
      vertex 9.87167 -9.87167 -8.37167
    endloop
  endfacet
endsolid OpenSCAD_Model
